<?xml version="1.0" standalone="no"?>
<!DOCTYPE svg PUBLIC "-//W3C//DTD SVG 20010904//EN"
 "http://www.w3.org/TR/2001/REC-SVG-20010904/DTD/svg10.dtd">
<svg version="1.0" xmlns="http://www.w3.org/2000/svg"
 width="16.000000pt" height="16.000000pt" viewBox="0 0 16 16"
 preserveAspectRatio="xMidYMid meet">
<metadata>
Created by potrace 1.16, written by Peter Selinger 2001-2019
</metadata>
<g transform="translate(0.000000,16.000000) scale(0.016000,-0.016000)"
fill="#000000" stroke="none">
<path d="M290 941 c-89 -29 -174 -104 -213 -189 -32 -69 -31 -216 2 -289 22
-51 23 -54 7 -99 -39 -114 -1 -152 105 -104 37 16 57 18 130 13 117 -8 159 0
159 32 0 33 -11 37 -65 25 -37 -8 -60 -7 -109 5 -61 15 -63 15 -119 -10 l-57
-25 6 28 c4 15 11 35 15 44 13 25 11 66 -5 91 -8 12 -22 49 -31 82 -19 74 -9
135 35 213 110 191 368 170 464 -38 15 -33 21 -66 21 -125 0 -79 0 -80 25 -80
l25 0 0 100 c-1 89 -4 106 -28 153 -59 113 -153 175 -272 179 -38 1 -81 -1
-95 -6z"/>
<path d="M304 806 c-32 -14 -44 -33 -44 -67 0 -31 27 -33 61 -5 36 30 46 32
77 10 31 -22 28 -34 -23 -86 -38 -40 -45 -53 -45 -87 0 -39 2 -41 30 -41 25 0
30 4 30 25 0 17 16 43 45 74 25 26 48 62 51 79 16 79 -92 137 -182 98z"/>
<path d="M452 518 c-26 -26 -12 -73 53 -181 36 -60 65 -109 65 -111 0 -1 -29
0 -64 2 -55 4 -67 1 -85 -17 -28 -28 -27 -67 2 -85 27 -17 274 -76 320 -76 19
0 56 12 83 26 133 70 155 147 83 288 -55 107 -75 129 -114 122 -32 -6 -90 -12
-169 -18 -43 -3 -51 0 -65 22 -8 14 -20 28 -26 32 -16 12 -70 9 -83 -4z m111
-123 c32 -52 65 -95 73 -95 26 0 26 27 -1 69 -14 23 -23 46 -20 52 9 14 22 3
51 -42 13 -21 31 -39 39 -39 17 0 20 32 5 61 -20 37 2 43 30 9 29 -36 50 -34
50 6 0 13 6 24 13 24 13 0 84 -126 98 -173 17 -58 -34 -124 -124 -162 -35 -14
-43 -14 -182 21 -80 20 -145 40 -145 44 0 14 24 17 100 10 41 -4 78 -5 83 -3
16 9 3 38 -73 163 -72 116 -86 150 -62 150 4 0 33 -43 65 -95z"/>
</g>
</svg>
