<svg version="1.1" id="Layer_1" xmlns="http://www.w3.org/2000/svg" xmlns:xlink="http://www.w3.org/1999/xlink" x="0px" y="0px"
	 width="100%" viewBox="0 0 100 100" enable-background="new 0 0 100 100" xml:space="preserve">
<path fill="#000000" opacity="1.000000" stroke="none" d="M101.000000,33.000000 C101.000000,55.999996 101.000000,78.499992 101.000000,100.999985 C67.666679,100.999992 34.333355,100.999992 1.000022,101.000000 C1.000015,67.666679 1.000015,34.333366 1.000008,1.000036 C34.333309,1.000024 67.666618,1.000024 100.999969,1.000012 C101.000000,11.500000 101.000000,22.000000 101.000000,33.000000 M70.043045,96.186340 C75.462044,96.120842 80.882324,96.107903 86.299690,95.975464 C92.025627,95.835480 94.944351,93.054245 94.958832,87.363724 C95.024086,61.715939 94.952789,36.067791 95.026863,10.420051 C95.035942,7.275915 94.035408,5.958427 90.734589,5.971275 C67.918274,6.060080 45.101292,6.059324 22.284969,5.971404 C19.004440,5.958762 17.922781,7.233884 17.970850,10.401052 C18.097204,18.726280 17.792408,27.062180 18.082064,35.379105 C18.233515,39.727737 16.868010,41.680134 12.446886,40.997597 C7.866058,40.290401 6.862348,42.548748 6.925665,46.726215 C7.132610,60.379795 6.985209,74.038513 7.010022,87.695190 C7.022254,94.427414 8.537857,95.972328 15.158296,95.989708 C33.144722,96.036919 51.131241,96.048386 70.043045,96.186340 z"/>
<path fill="#444847" opacity="1.000000" stroke="none" d="M69.580383,96.130188 C51.131241,96.048386 33.144722,96.036919 15.158296,95.989708 C8.537857,95.972328 7.022254,94.427414 7.010022,87.695190 C6.985209,74.038513 7.132610,60.379795 6.925665,46.726215 C6.862348,42.548748 7.866058,40.290401 12.446886,40.997597 C16.868010,41.680134 18.233515,39.727737 18.082064,35.379105 C17.792408,27.062180 18.097204,18.726280 17.970850,10.401052 C17.922781,7.233884 19.004440,5.958762 22.284969,5.971404 C45.101292,6.059324 67.918274,6.060080 90.734589,5.971275 C94.035408,5.958427 95.035942,7.275915 95.026863,10.420051 C94.952789,36.067791 95.024086,61.715939 94.958832,87.363724 C94.944351,93.054245 92.025627,95.835480 86.299690,95.975464 C80.882324,96.107903 75.462044,96.120842 69.580383,96.130188 M45.500084,92.000000 C57.658691,91.997406 69.817574,92.041931 81.975792,91.971939 C87.868248,91.938011 90.923912,89.222565 90.945465,83.686295 C91.034950,60.701855 90.950165,37.716770 91.017990,14.732181 C91.028038,11.326221 89.682205,9.968987 86.272079,9.981737 C66.618706,10.055217 46.964699,10.063974 27.311487,9.971213 C24.057272,9.955853 22.961958,11.183931 22.972258,14.374546 C23.050760,38.691547 23.080019,63.009308 22.942514,87.325798 C22.920507,91.217201 24.503403,92.171005 28.012991,92.044945 C33.502182,91.847748 39.003830,91.997330 45.500084,92.000000 M11.000000,61.505913 C11.006920,69.664337 10.777041,77.834892 11.193738,85.972336 C11.293079,87.912300 13.551967,89.741669 14.817573,91.621910 C15.874716,89.825577 17.804701,88.049698 17.847351,86.229591 C18.124218,74.414627 17.999022,62.590038 17.983997,50.768627 C17.981031,48.435268 18.289114,46.054886 14.625731,45.996231 C10.663613,45.932800 11.021985,48.505859 11.010214,51.018650 C10.995394,54.182072 11.002407,57.345596 11.000000,61.505913 z"/>
<path fill="#000000" opacity="1.000000" stroke="none" d="M45.000141,92.000000 C39.003830,91.997330 33.502182,91.847748 28.012991,92.044945 C24.503403,92.171005 22.920507,91.217201 22.942514,87.325798 C23.080019,63.009308 23.050760,38.691547 22.972258,14.374546 C22.961958,11.183931 24.057272,9.955853 27.311487,9.971213 C46.964699,10.063974 66.618706,10.055217 86.272079,9.981737 C89.682205,9.968987 91.028038,11.326221 91.017990,14.732181 C90.950165,37.716770 91.034950,60.701855 90.945465,83.686295 C90.923912,89.222565 87.868248,91.938011 81.975792,91.971939 C69.817574,92.041931 57.658691,91.997406 45.000141,92.000000 M31.090132,52.534756 C39.556927,52.676392 48.026512,52.960972 56.487309,52.795692 C57.669369,52.772602 59.776562,50.567753 59.813099,49.324585 C60.091541,39.850365 60.118565,30.358543 59.780052,20.888062 C59.732563,19.559450 57.324482,17.280405 55.918903,17.208681 C48.618179,16.836143 41.277760,16.835791 33.977707,17.215734 C32.602501,17.287312 30.237331,19.649733 30.213543,20.988546 C30.030659,31.280800 30.313044,41.581322 31.090132,52.534756 M40.761536,68.001511 C40.263760,68.003647 39.687984,67.842445 39.281811,68.036407 C37.588856,68.844856 35.946926,69.760162 34.286282,70.636284 C36.038872,71.422203 37.764851,72.806709 39.548847,72.885994 C45.841743,73.165718 52.154526,73.001740 58.459766,72.999084 C66.922028,72.995522 75.385635,73.057388 83.845078,72.899254 C85.087883,72.876022 86.400169,71.911118 87.461929,71.097076 C87.656219,70.948128 87.006996,68.895805 86.374687,68.638939 C85.055344,68.102982 83.487663,68.031754 82.021233,68.027344 C68.581223,67.986946 55.141052,68.001808 40.761536,68.001511 M43.604443,80.000069 C42.271454,80.001892 40.859116,79.722740 39.624107,80.071518 C37.780975,80.592018 36.062813,81.555054 34.291481,82.329811 C36.114590,83.218391 37.926250,84.849167 39.762623,84.877495 C53.755711,85.093285 67.753700,85.019051 81.749962,84.974266 C84.105583,84.966728 87.297195,85.746391 87.299110,82.036255 C87.299461,81.359512 83.906754,80.119545 82.067039,80.093880 C69.572662,79.919533 57.074715,80.001114 43.604443,80.000069 M81.254692,29.998480 C82.084854,29.991512 83.047012,30.252466 83.717804,29.922001 C85.129646,29.226456 86.388680,28.220749 87.710426,27.342335 C86.448341,26.570118 85.221634,25.210934 83.917732,25.132328 C79.451668,24.863100 74.949089,24.888807 70.482315,25.161011 C69.370506,25.228764 68.340950,26.646463 67.273590,27.443678 C68.302986,28.276669 69.270378,29.715994 70.373413,29.828775 C73.661522,30.164976 77.002861,29.980503 81.254692,29.998480 M75.608597,37.000202 C73.612938,37.041988 71.578667,36.870708 69.639114,37.222153 C68.767113,37.380157 67.783882,38.468967 67.446823,39.360611 C67.286507,39.784698 68.506622,41.339615 69.125519,41.354126 C74.706711,41.485001 80.297020,41.476925 85.873383,41.242058 C86.554390,41.213371 87.169006,39.608212 88.707954,37.522770 C83.908554,37.316402 80.230225,37.158241 75.608597,37.000202 M78.445236,52.999931 C80.588905,52.977036 82.755051,53.126747 84.865936,52.852005 C85.798119,52.730679 86.618240,51.748398 87.489235,51.156979 C86.722267,50.472351 85.975304,49.222816 85.185074,49.194824 C80.080574,49.014015 74.963631,49.012672 69.858887,49.188358 C69.055054,49.216022 68.292435,50.441154 67.510765,51.112614 C68.367058,51.717205 69.177521,52.746128 70.088486,52.844513 C72.536034,53.108845 75.026550,52.975437 78.445236,52.999931 z"/>
<path fill="#000000" opacity="1.000000" stroke="none" d="M11.000000,61.007496 C11.002407,57.345596 10.995394,54.182072 11.010214,51.018650 C11.021985,48.505859 10.663613,45.932800 14.625731,45.996231 C18.289114,46.054886 17.981031,48.435268 17.983997,50.768627 C17.999022,62.590038 18.124218,74.414627 17.847351,86.229591 C17.804701,88.049698 15.874716,89.825577 14.817572,91.621910 C13.551967,89.741669 11.293079,87.912300 11.193738,85.972336 C10.777041,77.834892 11.006920,69.664337 11.000000,61.007496 z"/>
<path fill="#444847" opacity="1.000000" stroke="none" d="M30.770571,52.207016 C30.313044,41.581322 30.030659,31.280800 30.213543,20.988546 C30.237331,19.649733 32.602501,17.287312 33.977707,17.215734 C41.277760,16.835791 48.618179,16.836143 55.918903,17.208681 C57.324482,17.280405 59.732563,19.559450 59.780052,20.888062 C60.118565,30.358543 60.091541,39.850365 59.813099,49.324585 C59.776562,50.567753 57.669369,52.772602 56.487309,52.795692 C48.026512,52.960972 39.556927,52.676392 30.770571,52.207016 M35.176453,46.005608 C36.349792,46.659821 37.494888,47.809490 38.701607,47.878288 C42.845840,48.114574 47.013561,47.896542 51.168571,48.001114 C53.930149,48.070618 55.044514,46.901653 55.003044,44.153622 C54.910206,38.001686 54.901829,31.846363 54.998425,25.694609 C55.043686,22.812159 53.651283,21.936808 51.016735,21.998478 C47.027584,22.091850 43.030647,22.131496 39.044571,21.986422 C36.001568,21.875671 34.924709,23.186457 34.985390,26.133001 C35.115479,32.450008 35.052193,38.770992 35.176453,46.005608 z"/>
<path fill="#444847" opacity="1.000000" stroke="none" d="M41.231232,68.001038 C55.141052,68.001808 68.581223,67.986946 82.021233,68.027344 C83.487663,68.031754 85.055344,68.102982 86.374687,68.638939 C87.006996,68.895805 87.656219,70.948128 87.461929,71.097076 C86.400169,71.911118 85.087883,72.876022 83.845078,72.899254 C75.385635,73.057388 66.922028,72.995522 58.459766,72.999084 C52.154526,73.001740 45.841743,73.165718 39.548847,72.885994 C37.764851,72.806709 36.038872,71.422203 34.286282,70.636284 C35.946926,69.760162 37.588856,68.844856 39.281811,68.036407 C39.687984,67.842445 40.263760,68.003647 41.231232,68.001038 z"/>
<path fill="#444847" opacity="1.000000" stroke="none" d="M44.091179,80.000046 C57.074715,80.001114 69.572662,79.919533 82.067039,80.093880 C83.906754,80.119545 87.299461,81.359512 87.299110,82.036255 C87.297195,85.746391 84.105583,84.966728 81.749962,84.974266 C67.753700,85.019051 53.755711,85.093285 39.762623,84.877495 C37.926250,84.849167 36.114590,83.218391 34.291481,82.329811 C36.062813,81.555054 37.780975,80.592018 39.624107,80.071518 C40.859116,79.722740 42.271454,80.001892 44.091179,80.000046 z"/>
<path fill="#444847" opacity="1.000000" stroke="none" d="M80.789047,29.998955 C77.002861,29.980503 73.661522,30.164976 70.373413,29.828775 C69.270378,29.715994 68.302986,28.276669 67.273590,27.443678 C68.340950,26.646463 69.370506,25.228764 70.482315,25.161011 C74.949089,24.888807 79.451668,24.863100 83.917732,25.132328 C85.221634,25.210934 86.448341,26.570118 87.710426,27.342335 C86.388680,28.220749 85.129646,29.226456 83.717804,29.922001 C83.047012,30.252466 82.084854,29.991512 80.789047,29.998955 z"/>
<path fill="#444847" opacity="1.000000" stroke="none" d="M76.080246,37.000141 C80.230225,37.158241 83.908554,37.316402 88.707954,37.522770 C87.169006,39.608212 86.554390,41.213371 85.873383,41.242058 C80.297020,41.476925 74.706711,41.485001 69.125519,41.354126 C68.506622,41.339615 67.286507,39.784698 67.446823,39.360611 C67.783882,38.468967 68.767113,37.380157 69.639114,37.222153 C71.578667,36.870708 73.612938,37.041988 76.080246,37.000141 z"/>
<path fill="#444847" opacity="1.000000" stroke="none" d="M77.972618,52.999947 C75.026550,52.975437 72.536034,53.108845 70.088486,52.844513 C69.177521,52.746128 68.367058,51.717205 67.510765,51.112610 C68.292435,50.441154 69.055054,49.216022 69.858887,49.188358 C74.963631,49.012672 80.080574,49.014015 85.185074,49.194824 C85.975304,49.222816 86.722267,50.472351 87.489235,51.156979 C86.618240,51.748398 85.798119,52.730679 84.865936,52.852005 C82.755051,53.126747 80.588905,52.977036 77.972618,52.999947 z"/>
<path fill="#000000" opacity="1.000000" stroke="none" d="M35.122269,45.547981 C35.052193,38.770992 35.115479,32.450008 34.985390,26.133001 C34.924709,23.186457 36.001568,21.875671 39.044571,21.986422 C43.030647,22.131496 47.027584,22.091850 51.016735,21.998478 C53.651283,21.936808 55.043686,22.812159 54.998425,25.694609 C54.901829,31.846363 54.910206,38.001686 55.003044,44.153622 C55.044514,46.901653 53.930149,48.070618 51.168571,48.001114 C47.013561,47.896542 42.845840,48.114574 38.701607,47.878288 C37.494888,47.809490 36.349792,46.659821 35.122269,45.547981 z"/>
</svg>