<svg version="1.1" id="Layer_1" xmlns="http://www.w3.org/2000/svg" xmlns:xlink="http://www.w3.org/1999/xlink" x="0px" y="0px"
	 width="100%" viewBox="0 0 406 320" enable-background="new 0 0 406 320" xml:space="preserve">
<path fill="#CC1721" opacity="1.000000" stroke="none" d="M244.000000,321.000000 C162.694489,321.000000 81.888992,321.000000 1.041744,321.000000 C1.041744,214.397903 1.041744,107.795776 1.041744,1.096828 C136.222122,1.096828 271.444336,1.096828 406.833282,1.096828 C406.833282,107.666458 406.833282,214.333206 406.833282,321.000000 C352.795868,321.000000 298.647919,321.000000 244.000000,321.000000 M329.061707,275.438354 C307.378632,253.752792 285.695221,232.067566 264.012695,210.381439 C258.570282,204.938156 258.555481,204.857819 263.170258,198.926056 C278.403992,179.344833 285.756073,157.274017 286.374146,132.349289 C288.100128,62.746586 221.773376,5.305289 147.595139,24.033230 C105.041389,34.776863 72.709320,72.159676 66.809723,117.116913 C60.449654,165.583115 86.114876,212.780334 130.687149,231.691895 C170.790115,248.707138 209.040680,244.020844 244.284332,217.883713 C249.823837,213.775558 250.135010,213.746231 255.037430,218.658768 C280.814758,244.489120 306.588043,270.323578 332.351471,296.167786 C335.750763,299.577759 339.708771,300.173920 342.472717,297.600159 C345.199921,295.060608 344.725128,290.875702 341.314880,287.510040 C337.401794,283.648163 333.479828,279.795197 329.061707,275.438354 z"/>
<path fill="#FEFBFB" opacity="1.000000" stroke="none" d="M329.311707,275.688354 C333.479828,279.795197 337.401794,283.648163 341.314880,287.510040 C344.725128,290.875702 345.199921,295.060608 342.472717,297.600159 C339.708771,300.173920 335.750763,299.577759 332.351471,296.167786 C306.588043,270.323578 280.814758,244.489120 255.037430,218.658768 C250.135010,213.746231 249.823837,213.775558 244.284332,217.883713 C209.040680,244.020844 170.790115,248.707138 130.687149,231.691895 C86.114876,212.780334 60.449654,165.583115 66.809723,117.116913 C72.709320,72.159676 105.041389,34.776863 147.595139,24.033230 C221.773376,5.305289 288.100128,62.746586 286.374146,132.349289 C285.756073,157.274017 278.403992,179.344833 263.170258,198.926056 C258.555481,204.857819 258.570282,204.938156 264.012695,210.381439 C285.695221,232.067566 307.378632,253.752792 329.311707,275.688354 M266.923737,94.774605 C247.485092,51.060085 204.997726,26.905605 160.400528,34.215122 C107.382530,42.904812 71.009270,93.197510 79.171371,146.529312 C87.046158,197.983704 136.693481,234.889969 188.932114,228.121964 C251.337006,220.036819 290.456024,153.708160 266.923737,94.774605 z"/>
<path fill="#CC1721" opacity="1.000000" stroke="none" d="M267.030457,95.147606 C290.456024,153.708160 251.337006,220.036819 188.932114,228.121964 C136.693481,234.889969 87.046158,197.983704 79.171371,146.529312 C71.009270,93.197510 107.382530,42.904812 160.400528,34.215122 C204.997726,26.905605 247.485092,51.060085 267.030457,95.147606 z"/>
</svg>