<svg version="1.1" id="Layer_1" xmlns="http://www.w3.org/2000/svg" xmlns:xlink="http://www.w3.org/1999/xlink" x="0px" y="0px"
	 width="100%" viewBox="0 0 300 300" enable-background="new 0 0 300 300" xml:space="preserve">
<path fill="#000000" opacity="1.000000" stroke="none" 
	d="
M301.000000,104.000000 
	C301.000000,169.999985 301.000000,235.499985 301.000000,301.000000 
	C201.000031,301.000000 101.000061,301.000000 1.000067,301.000000 
	C1.000044,201.000046 1.000044,101.000092 1.000022,1.000107 
	C100.999939,1.000071 200.999878,1.000071 300.999908,1.000036 
	C301.000000,35.166668 301.000000,69.333336 301.000000,104.000000 
M281.000000,120.500000 
	C280.999969,95.009895 281.089539,69.519279 280.943970,44.030003 
	C280.901672,36.620056 278.531006,30.112608 273.157440,24.451448 
	C266.747528,17.698505 258.880280,15.203446 250.168579,15.081953 
	C231.179611,14.817132 212.184402,15.000000 193.191742,15.000008 
	C150.041733,15.000025 106.891617,14.946983 63.741852,15.048480 
	C55.857410,15.067025 48.737267,17.203426 45.341904,25.364122 
	C44.487324,27.418097 44.092079,29.797077 44.058403,32.035316 
	C43.919258,41.281647 44.000080,50.531292 44.000080,60.004818 
	C38.367329,60.004818 33.541805,59.878017 28.725887,60.038784 
	C23.401346,60.216534 20.762079,62.694672 21.013161,66.900520 
	C21.257935,71.000725 23.771336,72.952583 28.979279,72.991615 
	C33.901802,73.028511 38.824821,72.999542 43.702667,72.999542 
	C43.702667,88.033340 43.702667,102.286720 43.702667,117.000420 
	C38.288551,117.000420 33.161293,116.974426 28.034428,117.007973 
	C23.220022,117.039467 20.818033,119.141968 21.023251,123.241013 
	C21.243620,127.642731 23.922590,129.112228 28.019028,129.026337 
	C33.271027,128.916199 38.527077,128.999573 43.688900,128.999573 
	C43.688900,144.061249 43.688900,158.314911 43.688900,173.000427 
	C38.255787,173.000427 33.123772,173.084824 27.995989,172.973724 
	C23.886759,172.884720 21.232056,174.386337 21.023331,178.781998 
	C20.829369,182.866776 23.240856,184.962433 28.057470,184.992218 
	C33.308453,185.024673 38.559792,184.999588 43.675186,184.999588 
	C43.675186,200.089417 43.675186,214.343582 43.675186,229.007462 
	C38.056969,229.007462 32.723171,228.664459 27.473747,229.180206 
	C25.440752,229.379944 22.851992,231.119980 21.889349,232.900558 
	C21.007174,234.532318 21.159908,237.938889 22.326445,239.164810 
	C23.894344,240.812561 26.826668,241.672989 29.257658,241.879761 
	C33.999535,242.283081 38.799957,241.998016 44.000000,241.998016 
	C44.000000,251.068695 44.312630,259.543304 43.926914,267.986053 
	C43.344612,280.731689 51.881657,286.894257 62.765354,286.921783 
	C125.574028,287.080627 188.384140,287.175903 251.191849,286.884064 
	C268.453735,286.803864 281.140533,274.330109 281.063812,256.447601 
	C280.870850,211.465805 281.000000,166.482620 281.000000,120.500000 
z"/>
<path fill="#DA0C15" opacity="1.000000" stroke="none" 
	d="
M281.000000,121.000000 
	C281.000000,166.482620 280.870850,211.465805 281.063812,256.447601 
	C281.140533,274.330109 268.453735,286.803864 251.191849,286.884064 
	C188.384140,287.175903 125.574028,287.080627 62.765354,286.921783 
	C51.881657,286.894257 43.344612,280.731689 43.926914,267.986053 
	C44.312630,259.543304 44.000000,251.068695 44.000000,241.998016 
	C38.799957,241.998016 33.999535,242.283081 29.257658,241.879761 
	C26.826668,241.672989 23.894344,240.812561 22.326445,239.164810 
	C21.159908,237.938889 21.007174,234.532318 21.889349,232.900558 
	C22.851992,231.119980 25.440752,229.379944 27.473747,229.180206 
	C32.723171,228.664459 38.056969,229.007462 43.675186,229.007462 
	C43.675186,214.343582 43.675186,200.089417 43.675186,184.999588 
	C38.559792,184.999588 33.308453,185.024673 28.057470,184.992218 
	C23.240856,184.962433 20.829369,182.866776 21.023331,178.781998 
	C21.232056,174.386337 23.886759,172.884720 27.995989,172.973724 
	C33.123772,173.084824 38.255787,173.000427 43.688900,173.000427 
	C43.688900,158.314911 43.688900,144.061249 43.688900,128.999573 
	C38.527077,128.999573 33.271027,128.916199 28.019028,129.026337 
	C23.922590,129.112228 21.243620,127.642731 21.023251,123.241013 
	C20.818033,119.141968 23.220022,117.039467 28.034428,117.007973 
	C33.161293,116.974426 38.288551,117.000420 43.702667,117.000420 
	C43.702667,102.286720 43.702667,88.033340 43.702667,72.999542 
	C38.824821,72.999542 33.901802,73.028511 28.979279,72.991615 
	C23.771336,72.952583 21.257935,71.000725 21.013161,66.900520 
	C20.762079,62.694672 23.401346,60.216534 28.725887,60.038784 
	C33.541805,59.878017 38.367329,60.004818 44.000080,60.004818 
	C44.000080,50.531292 43.919258,41.281647 44.058403,32.035316 
	C44.092079,29.797077 44.487324,27.418097 45.341904,25.364122 
	C48.737267,17.203426 55.857410,15.067025 63.741852,15.048480 
	C106.891617,14.946983 150.041733,15.000025 193.191742,15.000008 
	C212.184402,15.000000 231.179611,14.817132 250.168579,15.081953 
	C258.880280,15.203446 266.747528,17.698505 273.157440,24.451448 
	C278.531006,30.112608 280.901672,36.620056 280.943970,44.030003 
	C281.089539,69.519279 280.999969,95.009895 281.000000,121.000000 
M77.210060,175.707275 
	C79.201553,183.051300 77.871849,184.987396 70.814240,184.998489 
	C66.033478,185.005997 61.252701,184.999924 56.365776,184.999924 
	C56.365776,199.940247 56.365776,214.309433 56.365776,229.003525 
	C61.538017,229.003525 66.350708,228.892807 71.156029,229.033676 
	C76.286819,229.184097 78.806557,232.188141 77.961090,237.077530 
	C77.171883,241.641556 73.278008,241.701355 69.941490,241.922134 
	C65.378128,242.224121 60.779793,241.997559 56.005341,241.997559 
	C56.005341,251.313934 55.739212,259.814972 56.204144,268.275848 
	C56.311954,270.237823 58.829803,273.612518 60.381927,273.696716 
	C69.780891,274.206604 79.221405,273.950653 88.615555,273.950653 
	C88.615555,191.635040 88.615555,109.961525 88.615555,28.010302 
	C79.255127,28.010302 70.276512,27.975422 61.298439,28.029547 
	C58.226955,28.048061 56.144531,29.726877 56.086620,32.783604 
	C55.917408,41.715187 56.026470,50.652042 56.026470,60.002613 
	C61.085873,60.002613 65.566017,59.773209 70.009560,60.077770 
	C73.350578,60.306767 77.227631,60.404232 77.964531,64.990005 
	C78.754715,69.907303 76.264679,72.827293 71.087891,72.968315 
	C66.166977,73.102379 61.239536,72.997177 56.268909,72.997177 
	C56.268909,87.980141 56.268909,102.231125 56.268909,117.000206 
	C61.476128,117.000206 66.433479,117.127899 71.380829,116.960396 
	C75.447388,116.822708 78.269821,117.640251 78.035728,122.590385 
	C77.831451,126.909760 75.833031,128.950867 71.136978,128.990219 
	C66.208588,129.031540 61.279587,128.999466 56.428318,128.999466 
	C56.428318,144.068115 56.428318,158.438675 56.428318,173.000000 
	C59.016979,173.000000 61.186623,172.874771 63.336716,173.026566 
	C67.568192,173.325272 71.788811,173.777786 76.273804,174.452515 
	C76.451752,174.638992 76.638268,174.816483 77.210060,175.707275 
M101.000000,79.500000 
	C101.000000,144.246613 101.000000,208.993210 101.000000,274.000000 
	C103.780563,274.000000 105.767471,274.000000 107.754379,274.000000 
	C155.086990,274.000000 202.422150,273.733734 249.750366,274.189728 
	C261.389709,274.301849 269.138428,265.992493 269.095337,254.499222 
	C268.884827,198.334198 269.000031,142.167969 268.999969,86.002159 
	C268.999939,72.669029 268.950378,59.335663 269.015076,46.002850 
	C269.066711,35.361908 260.733063,27.780861 250.753464,27.850399 
	C202.923187,28.183681 155.089310,28.000029 107.256706,28.000036 
	C105.315529,28.000036 103.374344,28.000036 101.000000,28.000036 
	C101.000000,45.241150 101.000000,61.870575 101.000000,79.500000 
z"/>
<path fill="#000000" opacity="1.000000" stroke="none" 
	d="
M101.000000,79.000000 
	C101.000000,61.870575 101.000000,45.241150 101.000000,28.000036 
	C103.374344,28.000036 105.315529,28.000036 107.256706,28.000036 
	C155.089310,28.000029 202.923187,28.183681 250.753464,27.850399 
	C260.733063,27.780861 269.066711,35.361908 269.015076,46.002850 
	C268.950378,59.335663 268.999939,72.669029 268.999969,86.002159 
	C269.000031,142.167969 268.884827,198.334198 269.095337,254.499222 
	C269.138428,265.992493 261.389709,274.301849 249.750366,274.189728 
	C202.422150,273.733734 155.086990,274.000000 107.754379,274.000000 
	C105.767471,274.000000 103.780563,274.000000 101.000000,274.000000 
	C101.000000,208.993210 101.000000,144.246613 101.000000,79.000000 
z"/>
<path fill="#000000" opacity="1.000000" stroke="none" 
	d="
M76.013924,174.166656 
	C71.788811,173.777786 67.568192,173.325272 63.336716,173.026566 
	C61.186623,172.874771 59.016979,173.000000 56.428318,173.000000 
	C56.428318,158.438675 56.428318,144.068115 56.428318,128.999466 
	C61.279587,128.999466 66.208588,129.031540 71.136978,128.990219 
	C75.833031,128.950867 77.831451,126.909760 78.035728,122.590385 
	C78.269821,117.640251 75.447388,116.822708 71.380829,116.960396 
	C66.433479,117.127899 61.476128,117.000206 56.268909,117.000206 
	C56.268909,102.231125 56.268909,87.980141 56.268909,72.997177 
	C61.239536,72.997177 66.166977,73.102379 71.087891,72.968315 
	C76.264679,72.827293 78.754715,69.907303 77.964531,64.990005 
	C77.227631,60.404232 73.350578,60.306767 70.009560,60.077770 
	C65.566017,59.773209 61.085873,60.002613 56.026470,60.002613 
	C56.026470,50.652042 55.917408,41.715187 56.086620,32.783604 
	C56.144531,29.726877 58.226955,28.048061 61.298439,28.029547 
	C70.276512,27.975422 79.255127,28.010302 88.615555,28.010302 
	C88.615555,109.961525 88.615555,191.635040 88.615555,273.950653 
	C79.221405,273.950653 69.780891,274.206604 60.381927,273.696716 
	C58.829803,273.612518 56.311954,270.237823 56.204144,268.275848 
	C55.739212,259.814972 56.005341,251.313934 56.005341,241.997559 
	C60.779793,241.997559 65.378128,242.224121 69.941490,241.922134 
	C73.278008,241.701355 77.171883,241.641556 77.961090,237.077530 
	C78.806557,232.188141 76.286819,229.184097 71.156029,229.033676 
	C66.350708,228.892807 61.538017,229.003525 56.365776,229.003525 
	C56.365776,214.309433 56.365776,199.940247 56.365776,184.999924 
	C61.252701,184.999924 66.033478,185.005997 70.814240,184.998489 
	C77.871849,184.987396 79.201553,183.051300 77.034164,175.099014 
	C76.672859,174.132492 76.391411,174.024460 76.013924,174.166656 
z"/>
<path fill="#DA0C15" opacity="1.000000" stroke="none" 
	d="
M76.143860,174.309586 
	C76.391411,174.024460 76.672859,174.132492 76.845795,174.737869 
	C76.638268,174.816483 76.451752,174.638992 76.143860,174.309586 
z"/>
</svg>