<?xml version="1.0" standalone="no"?>
<!DOCTYPE svg PUBLIC "-//W3C//DTD SVG 20010904//EN"
 "http://www.w3.org/TR/2001/REC-SVG-20010904/DTD/svg10.dtd">
<svg version="1.0" xmlns="http://www.w3.org/2000/svg"
 width="300.000000pt" height="300.000000pt" viewBox="0 0 300.000000 300.000000"
 preserveAspectRatio="xMidYMid meet">

<g transform="translate(0.000000,300.000000) scale(0.100000,-0.100000)"
fill="#000000" stroke="none">
<path d="M117 2882 c-21 -23 -22 -52 -3 -78 13 -18 31 -19 237 -24 l223 -5
107 -850 c58 -467 109 -865 113 -883 10 -42 51 -91 93 -108 49 -21 1442 -20
1481 0 66 35 73 51 306 692 124 342 226 629 226 638 0 9 -9 25 -20 36 -20 20
-33 20 -1075 20 l-1054 0 -6 33 c-3 17 -18 140 -35 271 -22 179 -34 244 -46
257 -16 18 -36 19 -274 19 -236 0 -258 -1 -273 -18z m2619 -744 c-13 -35 -106
-290 -207 -568 -101 -277 -191 -512 -201 -522 -17 -17 -58 -18 -697 -18 -651
0 -680 1 -702 19 -22 18 -27 46 -94 585 l-71 566 997 0 998 0 -23 -62z" fill="red"/>
<path d="M890 671 c-47 -15 -85 -39 -122 -78 -136 -141 -99 -369 76 -461 43
-22 64 -27 131 -27 67 0 88 5 131 27 210 110 210 411 -1 521 -44 22 -170 33
-215 18z m183 -137 c43 -29 76 -90 77 -143 0 -55 -36 -118 -84 -146 -150 -88
-319 63 -247 221 44 97 162 129 254 68z" fill="red"/>
<path d="M2150 663 c-61 -22 -142 -104 -163 -167 -27 -80 -23 -162 14 -234 35
-72 83 -114 157 -142 111 -42 216 -18 303 69 87 87 111 192 69 303 -28 74 -70
122 -142 157 -51 26 -73 31 -127 30 -36 0 -86 -8 -111 -16z m153 -104 c46 -12
100 -58 117 -99 7 -17 11 -53 8 -84 -8 -95 -76 -156 -173 -156 -80 0 -144 51
-166 132 -21 81 31 175 113 204 42 16 55 16 101 3z" fill="red"/>
</g>
</svg>
