<?xml version="1.0" encoding="UTF-8"?>
<svg xmlns="http://www.w3.org/2000/svg" xmlns:xlink="http://www.w3.org/1999/xlink" width="50px" height="50px" viewBox="0 0 16 16" version="1.1">
<g id="surface1">
<path style=" stroke:none;fill-rule:nonzero;fill:rgb(0%,0%,0%);fill-opacity:1;" d="M 0.585938 0.613281 C 0.492188 0.730469 0.507812 1.023438 0.617188 1.105469 C 0.6875 1.15625 1.011719 1.171875 1.878906 1.171875 C 2.515625 1.171875 3.039062 1.183594 3.039062 1.199219 C 3.039062 1.367188 4.175781 10.316406 4.214844 10.457031 C 4.289062 10.726562 4.457031 10.929688 4.714844 11.046875 C 4.921875 11.136719 5.148438 11.148438 8.640625 11.148438 C 10.910156 11.148438 12.421875 11.125 12.535156 11.09375 C 12.96875 10.976562 12.976562 10.953125 14.296875 7.324219 C 15.050781 5.246094 15.503906 3.929688 15.488281 3.867188 C 15.414062 3.621094 15.605469 3.625 9.652344 3.625 L 4.019531 3.625 L 3.84375 2.171875 C 3.71875 1.140625 3.644531 0.691406 3.585938 0.625 C 3.507812 0.542969 3.371094 0.535156 2.078125 0.535156 C 0.863281 0.535156 0.644531 0.542969 0.585938 0.613281 Z M 14.667969 4.28125 C 14.667969 4.347656 12.464844 10.332031 12.421875 10.382812 C 12.375 10.441406 11.667969 10.453125 8.691406 10.453125 C 5.242188 10.453125 5.023438 10.449219 4.945312 10.355469 C 4.875 10.28125 4.773438 9.605469 4.507812 7.464844 C 4.316406 5.925781 4.144531 4.574219 4.128906 4.464844 L 4.097656 4.265625 L 9.382812 4.265625 C 12.289062 4.265625 14.667969 4.273438 14.667969 4.28125 Z M 14.667969 4.28125 "/>
<path style=" stroke:none;fill-rule:nonzero;fill:rgb(0%,0%,0%);fill-opacity:1;" d="M 4.828125 12.367188 C 4.511719 12.449219 4.261719 12.601562 4.03125 12.863281 C 3.316406 13.652344 3.585938 14.921875 4.554688 15.367188 C 4.859375 15.503906 5.542969 15.503906 5.84375 15.367188 C 6.582031 15.03125 6.953125 14.164062 6.691406 13.390625 C 6.582031 13.050781 6.214844 12.632812 5.886719 12.484375 C 5.621094 12.355469 5.082031 12.296875 4.828125 12.367188 Z M 5.601562 13.121094 C 6.054688 13.347656 6.21875 13.902344 5.960938 14.355469 C 5.796875 14.644531 5.535156 14.792969 5.199219 14.792969 C 4.691406 14.792969 4.320312 14.410156 4.320312 13.882812 C 4.320312 13.238281 5.019531 12.820312 5.601562 13.121094 Z M 5.601562 13.121094 "/>
<path style=" stroke:none;fill-rule:nonzero;fill:rgb(0%,0%,0%);fill-opacity:1;" d="M 11.535156 12.414062 C 10.425781 12.8125 10.097656 14.203125 10.917969 15.023438 C 11.222656 15.328125 11.476562 15.433594 11.980469 15.457031 C 12.335938 15.472656 12.457031 15.457031 12.683594 15.359375 C 13.019531 15.214844 13.386719 14.832031 13.515625 14.496094 C 13.644531 14.171875 13.617188 13.503906 13.464844 13.199219 C 13.128906 12.511719 12.257812 12.160156 11.535156 12.414062 Z M 12.390625 13.089844 C 12.613281 13.179688 12.832031 13.441406 12.910156 13.707031 C 13.09375 14.308594 12.441406 14.960938 11.839844 14.777344 C 11.574219 14.699219 11.3125 14.480469 11.222656 14.257812 C 10.917969 13.535156 11.667969 12.785156 12.390625 13.089844 Z M 12.390625 13.089844 "/>
</g>
</svg>
