<svg version="1.1" id="Layer_1" xmlns="http://www.w3.org/2000/svg" xmlns:xlink="http://www.w3.org/1999/xlink" x="0px" y="0px"
	 width="100%" viewBox="0 0 100 100" enable-background="new 0 0 100 100" xml:space="preserve">
<path fill="#000000" opacity="1.000000" stroke="none" d="M58.000000,101.000000 C38.666672,101.000000 19.833340,101.000000 1.000008,101.000000 C1.000005,67.666679 1.000005,34.333351 1.000003,1.000021 C34.333317,1.000014 67.666634,1.000014 100.999969,1.000007 C100.999977,34.333313 100.999977,67.666626 100.999985,100.999969 C86.833336,101.000000 72.666664,101.000000 58.000000,101.000000 M23.146709,5.256016 C18.703396,5.899287 19.341732,8.547739 21.460943,10.765454 C23.845972,13.261344 26.868477,15.148071 29.810745,17.454239 C27.296600,20.086929 26.066641,21.422972 24.785669,22.708172 C18.198801,29.316793 11.555236,35.869995 5.053543,42.561165 C4.147232,43.493889 3.698059,45.054642 3.524658,46.388054 C3.480615,46.726730 5.325900,47.275879 6.272115,47.785751 C8.355463,48.908375 11.519818,49.628056 12.198862,51.328484 C12.965586,53.248474 11.746100,56.154076 10.926982,58.466915 C9.867697,61.457893 6.707619,64.742165 7.360072,67.093094 C8.868361,72.527802 11.033685,78.731270 15.030653,82.217377 C18.119287,84.911255 22.451118,86.944359 25.936268,89.790092 C28.161264,91.606873 30.594006,93.278870 33.172153,94.520416 C35.423939,95.604797 38.666580,97.276260 40.312145,96.431107 C43.874027,94.601738 47.478615,95.348892 50.775833,94.584755 C57.156395,93.106041 63.444599,90.033218 68.958069,86.390533 C73.293839,83.525948 79.619911,82.602249 81.291176,76.291534 C81.359924,76.031921 82.527176,76.047394 83.186218,75.962425 C88.816666,75.236588 90.713837,69.401535 88.684677,64.505920 C86.653542,59.605534 89.134460,55.056499 90.314949,50.542519 C90.658051,49.230583 93.561745,48.551388 95.332443,47.663475 C96.402283,47.126999 98.353653,46.915504 98.491119,46.260452 C98.751678,45.018776 98.413841,43.181862 97.582840,42.263218 C94.233559,38.560745 90.594322,35.121166 87.075119,31.571671 C82.663589,27.122175 78.264755,22.660105 72.704697,17.033993 C75.723022,14.662559 78.471031,12.941359 80.579391,10.635332 C81.444344,9.689288 80.929131,7.481383 81.041748,5.847493 C79.609306,6.157610 77.902718,6.082631 76.805527,6.863691 C74.930885,8.198206 73.433395,10.064497 71.786079,11.715992 C66.336105,17.179768 66.337578,17.181234 70.684212,24.548698 C67.780083,24.918514 65.425812,25.404490 63.058537,25.479382 C58.691860,25.617525 54.316757,25.461044 49.946640,25.526230 C45.214729,25.596809 40.482311,25.909260 35.755001,25.828873 C34.488831,25.807339 33.240479,24.737619 31.122068,23.745422 C37.592102,18.084290 33.377560,14.634786 29.584177,11.076509 C27.641397,9.254141 25.737755,7.390053 23.146709,5.256016 z"/>
<path fill="#444847" opacity="1.000000" stroke="none" d="M23.481567,5.400418 C25.737755,7.390053 27.641397,9.254141 29.584177,11.076509 C33.377560,14.634786 37.592102,18.084290 31.122068,23.745422 C33.240479,24.737619 34.488831,25.807339 35.755001,25.828873 C40.482311,25.909260 45.214729,25.596809 49.946640,25.526230 C54.316757,25.461044 58.691860,25.617525 63.058537,25.479382 C65.425812,25.404490 67.780083,24.918514 70.684212,24.548698 C66.337578,17.181234 66.336105,17.179768 71.786079,11.715992 C73.433395,10.064497 74.930885,8.198206 76.805527,6.863691 C77.902718,6.082631 79.609306,6.157610 81.041748,5.847492 C80.929131,7.481383 81.444344,9.689288 80.579391,10.635332 C78.471031,12.941359 75.723022,14.662559 72.704697,17.033993 C78.264755,22.660105 82.663589,27.122175 87.075119,31.571671 C90.594322,35.121166 94.233559,38.560745 97.582840,42.263218 C98.413841,43.181862 98.751678,45.018776 98.491119,46.260452 C98.353653,46.915504 96.402283,47.126999 95.332443,47.663475 C93.561745,48.551388 90.658051,49.230583 90.314949,50.542519 C89.134460,55.056499 86.653542,59.605534 88.684677,64.505920 C90.713837,69.401535 88.816666,75.236588 83.186218,75.962425 C82.527176,76.047394 81.359924,76.031921 81.291176,76.291534 C79.619911,82.602249 73.293839,83.525948 68.958069,86.390533 C63.444599,90.033218 57.156395,93.106041 50.775833,94.584755 C47.478615,95.348892 43.874027,94.601738 40.312145,96.431107 C38.666580,97.276260 35.423939,95.604797 33.172153,94.520416 C30.594006,93.278870 28.161264,91.606873 25.936268,89.790092 C22.451118,86.944359 18.119287,84.911255 15.030653,82.217377 C11.033685,78.731270 8.868361,72.527802 7.360072,67.093094 C6.707619,64.742165 9.867697,61.457893 10.926982,58.466915 C11.746100,56.154076 12.965586,53.248474 12.198862,51.328484 C11.519818,49.628056 8.355463,48.908375 6.272115,47.785751 C5.325900,47.275879 3.480615,46.726730 3.524658,46.388054 C3.698059,45.054642 4.147232,43.493889 5.053543,42.561165 C11.555236,35.869995 18.198801,29.316793 24.785669,22.708172 C26.066641,21.422972 27.296600,20.086929 29.810745,17.454239 C26.868477,15.148071 23.845972,13.261344 21.460943,10.765454 C19.341732,8.547739 18.703396,5.899287 23.481567,5.400418 M40.052990,30.965969 C35.910545,30.407133 31.768105,29.848297 27.914438,29.328419 C23.412771,33.829231 18.529520,38.711559 13.577242,43.662899 C17.126314,47.147587 18.503443,52.835228 24.783562,54.991863 C27.772018,56.018124 29.854082,60.514912 34.071186,61.196804 C34.821438,61.318115 35.812286,62.473312 35.972778,63.292088 C36.748402,67.249054 38.471180,70.496391 41.405182,73.370415 C42.601398,74.542175 42.058468,77.888046 43.261810,78.577217 C46.536221,80.452492 48.109295,82.722450 48.251152,86.484314 C48.292961,87.593109 49.840561,88.840500 50.978153,89.610733 C51.398258,89.895180 53.355045,88.989716 53.355251,88.626259 C53.356079,87.118210 53.282589,85.331787 52.482182,84.164886 C51.183842,82.272072 49.066387,80.946030 47.737244,79.067596 C46.925938,77.921013 46.942856,76.188393 46.587784,74.718987 C48.262531,74.872269 50.400753,74.427383 51.521458,75.295731 C54.397377,77.524055 56.875450,80.283730 59.411629,82.927803 C62.145771,85.778259 64.136642,85.282333 67.214638,80.225975 C62.267078,76.364235 57.319519,72.502495 52.371960,68.640755 C52.824741,67.862183 53.277527,67.083618 53.730309,66.305046 C55.561832,66.785759 57.768105,66.778534 59.152325,67.841652 C62.825638,70.662842 66.034271,74.085701 69.677795,76.951294 C70.632347,77.702042 72.498558,77.293625 73.946083,77.417557 C74.037758,75.899796 74.568672,74.224289 74.096321,72.909103 C73.633453,71.620338 72.162498,70.685371 71.110840,69.617943 C68.356804,66.822601 65.590134,64.039711 62.828499,61.251862 C63.131832,60.622654 63.435165,59.993446 63.738499,59.364239 C65.551811,59.810059 67.797661,59.732571 69.093903,60.803967 C72.418777,63.552113 75.173378,66.988022 78.483482,69.757530 C79.484573,70.595131 81.557434,70.151756 83.139374,70.295128 C83.096657,68.716133 83.716972,66.503532 82.907906,65.656883 C75.427757,57.829357 67.736069,50.201565 59.987171,42.637310 C59.270802,41.938015 57.515511,41.584702 56.641247,41.971569 C55.800938,42.343403 55.301849,43.830692 54.962524,44.923962 C54.048809,47.867863 53.801044,51.136574 52.362370,53.770203 C50.467899,57.238216 45.155701,58.329929 43.490673,55.656273 C40.548492,50.931782 37.546509,45.848888 36.470268,40.531319 C35.961391,38.016998 39.845879,34.613495 42.001186,31.305553 C42.031925,31.015436 42.062664,30.725321 42.093407,30.435205 C41.705746,30.595062 41.318089,30.754917 40.052990,30.965969 M77.007874,30.514126 C75.462051,28.811209 74.285179,28.189558 71.572563,29.406775 C68.681213,30.704199 64.795181,30.789165 61.581543,30.169172 C53.135803,28.539776 46.010040,31.340864 41.844181,38.898544 C41.372143,39.754917 41.301846,41.208256 41.694733,42.097988 C43.071224,45.215237 44.732014,48.206947 46.873844,52.399193 C48.273792,49.853851 50.082661,48.075859 49.743153,46.940037 C47.323887,38.846424 53.922676,37.410271 59.614754,32.666553 C67.567062,41.213127 75.207970,49.425018 82.669472,57.444103 C84.427765,52.373260 86.100906,47.547993 88.490509,40.656471 C85.720863,38.223431 81.615303,34.616829 77.007874,30.514126 M17.708885,77.905052 C18.926550,78.162308 20.712540,79.063660 21.269545,78.572174 C24.857712,75.406105 28.247152,72.000092 31.495018,68.481918 C31.895578,68.048019 31.333864,66.269676 30.723030,65.515083 C30.300640,64.993279 28.552452,64.717911 28.205597,65.088821 C24.483807,69.068825 20.923197,73.199539 17.708885,77.905052 M37.148521,78.092926 C36.885731,74.030098 34.720459,73.748329 31.938551,75.757690 C30.211502,77.005135 28.709982,78.672394 27.414749,80.383949 C25.636280,82.734055 26.119873,84.662422 30.164003,86.719200 C32.369446,84.027344 34.574886,81.335487 37.148521,78.092926 M22.671272,60.748753 C21.263668,57.941380 19.569998,57.636528 17.425892,60.054699 C16.224360,61.409813 14.594909,62.468826 13.694941,63.980717 C13.017822,65.118225 13.194425,66.763916 12.990993,68.183395 C14.488986,68.099297 16.493208,68.593414 17.382877,67.814499 C19.432489,66.020050 20.940538,63.607025 22.671272,60.748753 M35.646801,89.906326 C35.981289,90.274231 36.458523,91.017570 36.628555,90.952927 C38.708012,90.162300 40.907860,89.486275 42.683075,88.226250 C43.185905,87.869331 42.415096,85.718048 42.228405,84.389702 C40.516628,85.064529 38.683598,85.542427 37.141083,86.492165 C36.291374,87.015343 35.929924,88.331512 35.646801,89.906326 z"/>
<path fill="#000000" opacity="1.000000" stroke="none" d="M41.739819,31.612864 C39.845879,34.613495 35.961391,38.016998 36.470268,40.531319 C37.546509,45.848888 40.548492,50.931782 43.490673,55.656273 C45.155701,58.329929 50.467899,57.238216 52.362370,53.770203 C53.801044,51.136574 54.048809,47.867863 54.962524,44.923962 C55.301849,43.830692 55.800938,42.343403 56.641247,41.971569 C57.515511,41.584702 59.270802,41.938015 59.987171,42.637310 C67.736069,50.201565 75.427757,57.829357 82.907906,65.656883 C83.716972,66.503532 83.096657,68.716133 83.139374,70.295128 C81.557434,70.151756 79.484573,70.595131 78.483482,69.757530 C75.173378,66.988022 72.418777,63.552113 69.093903,60.803967 C67.797661,59.732571 65.551811,59.810059 63.738499,59.364239 C63.435165,59.993446 63.131832,60.622654 62.828499,61.251862 C65.590134,64.039711 68.356804,66.822601 71.110840,69.617943 C72.162498,70.685371 73.633453,71.620338 74.096321,72.909103 C74.568672,74.224289 74.037758,75.899796 73.946091,77.417557 C72.498558,77.293625 70.632347,77.702042 69.677795,76.951294 C66.034271,74.085701 62.825638,70.662842 59.152325,67.841652 C57.768105,66.778534 55.561832,66.785759 53.730309,66.305046 C53.277527,67.083618 52.824741,67.862183 52.371960,68.640755 C57.319519,72.502495 62.267078,76.364235 67.214638,80.225975 C64.136642,85.282333 62.145771,85.778259 59.411629,82.927803 C56.875450,80.283730 54.397377,77.524055 51.521458,75.295731 C50.400753,74.427383 48.262531,74.872269 46.587784,74.718987 C46.942856,76.188393 46.925938,77.921013 47.737244,79.067596 C49.066387,80.946030 51.183842,82.272072 52.482182,84.164886 C53.282589,85.331787 53.356079,87.118210 53.355251,88.626259 C53.355045,88.989716 51.398258,89.895180 50.978153,89.610733 C49.840561,88.840500 48.292961,87.593109 48.251152,86.484314 C48.109295,82.722450 46.536221,80.452492 43.261810,78.577217 C42.058468,77.888046 42.601398,74.542175 41.405182,73.370415 C38.471180,70.496391 36.748402,67.249054 35.972778,63.292088 C35.812286,62.473312 34.821438,61.318115 34.071186,61.196804 C29.854082,60.514912 27.772018,56.018124 24.783562,54.991863 C18.503443,52.835228 17.126314,47.147587 13.577242,43.662899 C18.529520,38.711559 23.412771,33.829231 27.914438,29.328419 C31.768105,29.848297 35.910545,30.407133 40.693550,31.115479 C41.469353,31.380945 41.604588,31.496904 41.739819,31.612864 z"/>
<path fill="#000000" opacity="1.000000" stroke="none" d="M77.258804,30.762177 C81.615303,34.616829 85.720863,38.223431 88.490509,40.656471 C86.100906,47.547993 84.427765,52.373260 82.669472,57.444103 C75.207970,49.425018 67.567062,41.213127 59.614754,32.666553 C53.922676,37.410271 47.323887,38.846424 49.743153,46.940037 C50.082661,48.075859 48.273792,49.853851 46.873844,52.399193 C44.732014,48.206947 43.071224,45.215237 41.694733,42.097988 C41.301846,41.208256 41.372143,39.754917 41.844181,38.898544 C46.010040,31.340864 53.135803,28.539776 61.581543,30.169172 C64.795181,30.789165 68.681213,30.704199 71.572563,29.406775 C74.285179,28.189558 75.462051,28.811209 77.258804,30.762177 z"/>
<path fill="#000000" opacity="1.000000" stroke="none" d="M17.513653,77.597000 C20.923197,73.199539 24.483807,69.068825 28.205597,65.088821 C28.552452,64.717911 30.300640,64.993279 30.723030,65.515083 C31.333864,66.269676 31.895578,68.048019 31.495018,68.481918 C28.247152,72.000092 24.857712,75.406105 21.269545,78.572174 C20.712540,79.063660 18.926550,78.162308 17.513653,77.597000 z"/>
<path fill="#000000" opacity="1.000000" stroke="none" d="M36.964424,78.368271 C34.574886,81.335487 32.369446,84.027344 30.164003,86.719200 C26.119873,84.662422 25.636280,82.734055 27.414749,80.383949 C28.709982,78.672394 30.211502,77.005135 31.938551,75.757690 C34.720459,73.748329 36.885731,74.030098 36.964424,78.368271 z"/>
<path fill="#000000" opacity="1.000000" stroke="none" d="M22.669798,61.096870 C20.940538,63.607025 19.432489,66.020050 17.382877,67.814499 C16.493208,68.593414 14.488986,68.099297 12.990993,68.183395 C13.194425,66.763916 13.017822,65.118225 13.694941,63.980717 C14.594909,62.468826 16.224360,61.409813 17.425892,60.054699 C19.569998,57.636528 21.263668,57.941380 22.669798,61.096870 z"/>
<path fill="#000000" opacity="1.000000" stroke="none" d="M35.497574,89.598251 C35.929924,88.331512 36.291374,87.015343 37.141083,86.492165 C38.683598,85.542427 40.516628,85.064529 42.228405,84.389702 C42.415096,85.718048 43.185905,87.869331 42.683075,88.226250 C40.907860,89.486275 38.708012,90.162300 36.628555,90.952927 C36.458523,91.017570 35.981289,90.274231 35.497574,89.598251 z"/>
<path fill="#000000" opacity="1.000000" stroke="none" d="M41.132271,31.089878 C41.318089,30.754917 41.705746,30.595062 42.093407,30.435205 C42.062664,30.725321 42.031925,31.015436 41.870502,31.459209 C41.604588,31.496904 41.469353,31.380945 41.132271,31.089878 z"/>
</svg>