<?xml version="1.0" standalone="no"?>
<!DOCTYPE svg PUBLIC "-//W3C//DTD SVG 20010904//EN"
 "http://www.w3.org/TR/2001/REC-SVG-20010904/DTD/svg10.dtd">
<svg version="1.0" xmlns="http://www.w3.org/2000/svg"
 width="16px" height="16px" viewBox="0 0 16 16"
 preserveAspectRatio="xMidYMid meet">
<metadata>
Created by potrace 1.16, written by Peter Selinger 2001-2019
</metadata>
<g transform="translate(0.000000,16.000000) scale(0.003941,-0.005000)"
fill="#000000" stroke="none">
<path d="M0 1600 l0 -1600 2030 0 2030 0 0 1600 0 1600 -2030 0 -2030 0 0
-1600z m1945 1389 c219 -36 421 -144 590 -314 142 -143 233 -298 282 -484 37
-137 44 -384 15 -521 -34 -163 -101 -307 -213 -456 -20 -27 -29 -48 -25 -61 3
-10 193 -205 421 -433 377 -376 415 -417 415 -447 0 -37 -25 -56 -66 -51 -18
2 -148 126 -442 421 -230 229 -424 417 -432 417 -9 0 -45 -22 -82 -48 -198
-145 -408 -212 -660 -212 -505 0 -914 309 -1065 805 -26 85 -27 101 -27 285 0
179 2 203 27 295 84 314 294 564 601 715 198 98 423 128 661 89z"/>
<path d="M1587 2864 c-133 -24 -276 -82 -387 -157 -66 -45 -196 -173 -246
-243 -65 -91 -122 -212 -151 -321 -22 -83 -26 -120 -26 -238 -1 -207 38 -350
141 -515 55 -89 183 -225 268 -286 87 -62 234 -129 340 -156 126 -31 322 -31
448 0 97 24 246 90 322 143 67 46 187 162 241 233 63 83 138 242 165 351 31
127 31 323 0 449 -27 106 -94 254 -156 340 -50 70 -180 198 -246 243 -207 140
-477 200 -713 157z"/>
</g>
</svg>
