<svg version="1.1" id="Layer_1" xmlns="http://www.w3.org/2000/svg" xmlns:xlink="http://www.w3.org/1999/xlink" x="0px" y="0px"
	 width="100%" viewBox="0 0 100 100" enable-background="new 0 0 100 100" xml:space="preserve">
<path fill="#000000" opacity="1.000000" stroke="none" d="M56.000000,101.000000 C37.333336,101.000000 19.166674,101.000000 1.000007,101.000000 C1.000005,67.666679 1.000005,34.333351 1.000002,1.000021 C34.333317,1.000014 67.666634,1.000014 100.999969,1.000007 C100.999977,34.333313 100.999977,67.666626 100.999985,100.999969 C86.166664,101.000000 71.333336,101.000000 56.000000,101.000000 M57.011871,86.420708 C58.556988,84.977646 59.881657,83.076874 61.700001,82.201118 C64.288582,80.954399 67.203926,80.271118 70.052582,79.733162 C71.277077,79.501930 72.916748,79.901306 73.955193,80.614738 C75.574959,81.727547 76.839005,83.356232 78.261406,84.758583 C82.426353,88.864830 86.005669,89.263138 89.461693,86.011063 C93.121346,82.567375 93.155968,77.797760 89.143105,73.762787 C86.712151,71.318451 83.782898,69.369682 81.077515,67.198265 C82.461891,65.634666 82.503624,65.273643 82.696129,65.033485 C89.454163,56.602623 89.453827,56.605888 83.347382,48.036209 C83.165413,47.780834 83.234924,47.341270 83.045998,47.096596 C80.214172,43.429161 77.436913,39.713745 74.445114,36.180412 C73.816628,35.438171 72.369293,35.406033 71.316483,35.001854 C70.151680,34.554676 68.777061,34.316795 67.890907,33.536690 C62.816990,29.069983 60.565788,29.064232 55.489040,33.381958 C54.313362,34.381863 52.596237,34.745136 51.128258,35.401352 C50.311661,33.481911 48.593639,31.448551 48.819569,29.660864 C50.817047,13.855393 40.190510,3.202953 23.575422,6.376081 C21.566950,6.759656 19.784279,8.325576 17.398050,9.612597 C21.423046,13.850335 24.703110,17.303768 28.361513,21.155539 C26.921513,22.785168 25.772871,24.085072 23.811190,26.305080 C20.894497,22.996832 18.836607,20.388697 16.490845,18.072054 C13.623425,15.240225 11.211470,15.714669 10.386333,19.470327 C6.889162,35.387928 18.605234,46.109421 31.997711,44.760090 C37.990070,44.156345 37.960621,43.820747 37.994358,50.019535 C38.002514,51.517403 38.409454,53.205341 37.860802,54.471172 C36.921482,56.638351 35.063450,60.406681 34.130478,60.251907 C28.194973,59.267269 27.016161,64.256096 24.439478,67.288483 C23.693567,68.166306 23.549435,70.686981 24.243427,71.481621 C31.111792,79.346069 38.152824,87.064262 45.331581,94.647202 C46.197289,95.561668 48.900150,96.212494 49.499481,95.650436 C52.226677,93.092857 54.505947,90.057655 57.011871,86.420708 z"/>
<path fill="#444847" opacity="1.000000" stroke="none" d="M56.979088,86.807465 C54.505947,90.057655 52.226677,93.092857 49.499481,95.650436 C48.900150,96.212494 46.197289,95.561668 45.331581,94.647202 C38.152824,87.064262 31.111792,79.346069 24.243427,71.481621 C23.549435,70.686981 23.693567,68.166306 24.439478,67.288483 C27.016161,64.256096 28.194973,59.267269 34.130478,60.251907 C35.063450,60.406681 36.921482,56.638351 37.860802,54.471172 C38.409454,53.205341 38.002514,51.517403 37.994358,50.019535 C37.960621,43.820747 37.990070,44.156345 31.997711,44.760090 C18.605234,46.109421 6.889162,35.387928 10.386333,19.470327 C11.211470,15.714669 13.623425,15.240225 16.490845,18.072054 C18.836607,20.388697 20.894497,22.996832 23.811190,26.305080 C25.772871,24.085072 26.921513,22.785168 28.361513,21.155539 C24.703110,17.303768 21.423046,13.850335 17.398050,9.612597 C19.784279,8.325576 21.566950,6.759656 23.575422,6.376081 C40.190510,3.202953 50.817047,13.855393 48.819569,29.660864 C48.593639,31.448551 50.311661,33.481911 51.128258,35.401352 C52.596237,34.745136 54.313362,34.381863 55.489040,33.381958 C60.565788,29.064232 62.816990,29.069983 67.890907,33.536690 C68.777061,34.316795 70.151680,34.554676 71.316483,35.001854 C72.369293,35.406033 73.816628,35.438171 74.445114,36.180412 C77.436913,39.713745 80.214172,43.429161 83.045998,47.096596 C83.234924,47.341270 83.165413,47.780834 83.347382,48.036209 C89.453827,56.605888 89.454163,56.602623 82.696129,65.033485 C82.503624,65.273643 82.461891,65.634666 81.077515,67.198265 C83.782898,69.369682 86.712151,71.318451 89.143105,73.762787 C93.155968,77.797760 93.121346,82.567375 89.461693,86.011063 C86.005669,89.263138 82.426353,88.864830 78.261406,84.758583 C76.839005,83.356232 75.574959,81.727547 73.955193,80.614738 C72.916748,79.901306 71.277077,79.501930 70.052582,79.733162 C67.203926,80.271118 64.288582,80.954399 61.700001,82.201118 C59.881657,83.076874 58.556988,84.977646 56.979088,86.807465 M66.694458,67.001221 C66.984573,67.031960 67.274689,67.062698 67.564804,67.093430 C67.404953,66.705772 67.245094,66.318108 66.937584,65.384758 C66.516693,65.102531 66.095802,64.820305 65.674911,64.538078 C65.912323,65.271996 66.149734,66.005920 66.694458,67.001221 M52.922966,81.110687 C57.770302,79.461929 62.617638,77.813179 68.490524,75.815598 C63.286118,70.705040 59.016773,66.304649 54.486332,62.191864 C53.142979,60.972351 49.546864,60.492111 49.579208,59.793274 C49.741482,56.286896 50.189453,52.510765 51.803703,49.511044 C52.354218,48.488033 56.673134,49.088474 59.132298,49.604412 C61.901371,50.185371 64.514771,51.508324 67.195885,52.508526 C67.583817,51.761314 67.971748,51.014103 68.359680,50.266891 C64.602951,47.524261 60.810066,44.829552 57.097504,42.028381 C50.643913,37.159073 42.451374,43.777149 41.905800,50.880169 C41.545811,55.566963 40.068413,60.167931 38.835590,66.021606 C42.512150,70.030472 47.432457,75.395500 52.922966,81.110687 M37.939468,39.173370 C41.559723,42.250053 43.392296,39.047199 44.850018,37.022064 C44.275620,34.415462 43.770939,31.769369 44.374748,29.406551 C45.896713,23.450838 44.198872,18.720575 40.035042,14.513210 C35.829582,10.263778 30.929508,9.134934 24.601938,10.633575 C25.960787,12.187796 26.867493,13.312315 27.863960,14.350697 C35.466633,22.273165 36.479820,19.921331 27.516460,29.030878 C25.167252,31.418400 23.394665,31.097504 21.286573,28.831240 C19.316101,26.712915 17.111332,24.812534 14.714554,22.535898 C13.481096,29.577396 15.962523,34.765079 21.102964,38.059216 C26.360008,41.428074 31.663090,41.213333 37.939468,39.173370 M48.485645,82.987740 C43.101330,77.234238 37.717014,71.480736 32.043789,65.418518 C30.265079,66.995544 29.171804,67.964867 27.824024,69.159828 C34.795898,76.814354 41.222027,83.869698 48.313427,91.655449 C49.855404,90.085152 51.067913,88.850365 52.447624,87.445320 C50.907440,85.683746 49.944435,84.582314 48.485645,82.987740 M87.791962,78.920799 C83.362839,74.014786 80.069702,66.814903 69.243790,71.557983 C73.651093,75.293472 77.478691,78.418999 81.169075,81.698898 C84.844963,84.965912 86.167992,84.616028 87.791962,78.920799 M69.950462,59.377632 C73.114311,55.559795 78.633713,53.310703 78.815353,46.667847 C75.048546,47.212551 72.521950,47.741623 71.835197,51.667698 C71.534500,53.386707 69.532471,54.794228 68.351349,56.379211 C67.794830,57.126007 67.352364,57.957787 66.858223,58.751057 C67.693596,59.075329 68.528976,59.399605 69.950462,59.377632 M76.999619,63.496674 C79.203636,60.287300 84.198105,58.814976 83.688347,53.660587 C79.589714,57.581123 75.727875,61.275162 71.866035,64.969200 C72.034729,65.307999 72.203430,65.646797 72.372124,65.985596 C73.748627,65.320023 75.125130,64.654449 76.999619,63.496674 M55.667347,52.765995 C55.322056,53.486446 54.501434,54.637001 54.704422,54.861340 C56.925545,57.316032 59.306499,59.626106 62.114239,62.448097 C63.084068,56.470127 59.787441,54.647694 55.667347,52.765995 M70.809784,44.576248 C71.190689,42.897472 71.571594,41.218697 71.952499,39.539921 C71.426407,39.275692 70.900307,39.011463 70.374207,38.747234 C69.175652,39.829590 67.977097,40.911945 66.778542,41.994301 C67.946831,42.984585 69.115128,43.974865 70.809784,44.576248 z"/>
<path fill="#000000" opacity="1.000000" stroke="none" d="M52.637867,80.935608 C47.432457,75.395500 42.512150,70.030472 38.835590,66.021606 C40.068413,60.167931 41.545811,55.566963 41.905800,50.880169 C42.451374,43.777149 50.643913,37.159073 57.097504,42.028381 C60.810066,44.829552 64.602951,47.524261 68.359680,50.266891 C67.971748,51.014103 67.583817,51.761314 67.195885,52.508526 C64.514771,51.508324 61.901371,50.185371 59.132298,49.604412 C56.673134,49.088474 52.354218,48.488033 51.803703,49.511044 C50.189453,52.510765 49.741482,56.286896 49.579208,59.793274 C49.546864,60.492111 53.142979,60.972351 54.486332,62.191864 C59.016773,66.304649 63.286118,70.705040 68.490524,75.815598 C62.617638,77.813179 57.770302,79.461929 52.637867,80.935608 z"/>
<path fill="#000000" opacity="1.000000" stroke="none" d="M37.559723,39.136467 C31.663090,41.213333 26.360008,41.428074 21.102964,38.059216 C15.962523,34.765079 13.481096,29.577396 14.714554,22.535898 C17.111332,24.812534 19.316101,26.712915 21.286573,28.831240 C23.394665,31.097504 25.167252,31.418400 27.516460,29.030878 C36.479820,19.921331 35.466633,22.273165 27.863960,14.350697 C26.867493,13.312315 25.960787,12.187796 24.601938,10.633575 C30.929508,9.134934 35.829582,10.263778 40.035042,14.513210 C44.198872,18.720575 45.896713,23.450838 44.374748,29.406551 C43.770939,31.769369 44.275620,34.415462 44.850018,37.022064 C43.392296,39.047199 41.559723,42.250053 37.559723,39.136467 z"/>
<path fill="#000000" opacity="1.000000" stroke="none" d="M48.733536,83.234314 C49.944435,84.582314 50.907440,85.683746 52.447624,87.445320 C51.067913,88.850365 49.855404,90.085152 48.313427,91.655449 C41.222027,83.869698 34.795898,76.814354 27.824024,69.159828 C29.171804,67.964867 30.265079,66.995544 32.043789,65.418518 C37.717014,71.480736 43.101330,77.234238 48.733536,83.234314 z"/>
<path fill="#000000" opacity="1.000000" stroke="none" d="M87.840317,79.288162 C86.167992,84.616028 84.844963,84.965912 81.169075,81.698898 C77.478691,78.418999 73.651093,75.293472 69.243790,71.557983 C80.069702,66.814903 83.362839,74.014786 87.840317,79.288162 z"/>
<path fill="#000000" opacity="1.000000" stroke="none" d="M69.657410,59.550758 C68.528976,59.399605 67.693596,59.075329 66.858223,58.751057 C67.352364,57.957787 67.794830,57.126007 68.351349,56.379211 C69.532471,54.794228 71.534500,53.386707 71.835197,51.667698 C72.521950,47.741623 75.048546,47.212551 78.815353,46.667847 C78.633713,53.310703 73.114311,55.559795 69.657410,59.550758 z"/>
<path fill="#000000" opacity="1.000000" stroke="none" d="M76.750626,63.742775 C75.125130,64.654449 73.748627,65.320023 72.372124,65.985596 C72.203430,65.646797 72.034729,65.307999 71.866035,64.969200 C75.727875,61.275162 79.589714,57.581123 83.688347,53.660587 C84.198105,58.814976 79.203636,60.287300 76.750626,63.742775 z"/>
<path fill="#000000" opacity="1.000000" stroke="none" d="M55.967354,52.877144 C59.787441,54.647694 63.084068,56.470127 62.114239,62.448097 C59.306499,59.626106 56.925545,57.316032 54.704422,54.861340 C54.501434,54.637001 55.322056,53.486446 55.967354,52.877144 z"/>
<path fill="#000000" opacity="1.000000" stroke="none" d="M70.546600,44.770699 C69.115128,43.974865 67.946831,42.984585 66.778542,41.994301 C67.977097,40.911945 69.175652,39.829590 70.374207,38.747234 C70.900307,39.011463 71.426407,39.275692 71.952499,39.539921 C71.571594,41.218697 71.190689,42.897472 70.546600,44.770699 z"/>
<path fill="#000000" opacity="1.000000" stroke="none" d="M66.387154,66.739838 C66.149734,66.005920 65.912323,65.271996 65.674911,64.538078 C66.095802,64.820305 66.516693,65.102531 66.836304,65.859451 C66.619064,66.469368 66.503113,66.604607 66.387154,66.739838 z"/>
<path fill="#000000" opacity="1.000000" stroke="none" d="M66.910126,66.132294 C67.245094,66.318108 67.404953,66.705772 67.564804,67.093430 C67.274689,67.062698 66.984573,67.031960 66.540802,66.870529 C66.503113,66.604607 66.619064,66.469368 66.910126,66.132294 z"/>
</svg>