<?xml version="1.0" standalone="no"?>
<!DOCTYPE svg PUBLIC "-//W3C//DTD SVG 20010904//EN"
 "http://www.w3.org/TR/2001/REC-SVG-20010904/DTD/svg10.dtd">
<svg version="1.0" xmlns="http://www.w3.org/2000/svg"
 width="300.000000pt" height="300.000000pt" viewBox="0 0 300.000000 300.000000"
 preserveAspectRatio="xMidYMid meet">
<metadata>
Created by potrace 1.16, written by Peter Selinger 2001-2019
</metadata>
<g transform="translate(0.000000,300.000000) scale(0.100000,-0.100000)"
fill="#000000" stroke="none">
<path d="M110 2885 c-18 -22 -15 -77 6 -92 13 -10 74 -13 236 -13 120 0 218
-2 218 -5 0 -31 213 -1709 220 -1736 14 -50 46 -88 94 -110 39 -17 81 -19 736
-19 426 0 709 4 730 10 82 22 83 26 331 707 141 389 226 636 223 648 -14 46
22 45 -1094 45 l-1056 0 -33 273 c-24 193 -38 277 -49 290 -14 15 -40 17 -282
17 -228 0 -269 -2 -280 -15z m2640 -688 c0 -12 -413 -1134 -421 -1144 -9 -11
-141 -13 -699 -13 -647 0 -688 1 -703 18 -13 14 -32 141 -82 542 -36 289 -68
542 -71 563 l-6 37 991 0 c545 0 991 -1 991 -3z"/>
<path d="M905 681 c-59 -15 -106 -44 -149 -93 -134 -148 -84 -386 98 -469 57
-26 185 -26 242 0 138 63 208 225 159 370 -21 64 -90 142 -151 170 -50 24
-151 35 -199 22z m145 -141 c85 -43 116 -147 68 -232 -31 -54 -80 -82 -143
-82 -95 0 -165 72 -165 171 0 121 131 199 240 143z"/>
<path d="M2163 672 c-208 -74 -270 -335 -116 -489 57 -57 105 -77 199 -81 67
-3 90 0 132 18 63 27 132 99 156 162 24 61 19 186 -9 243 -63 129 -227 195
-362 147z m160 -126 c42 -17 83 -66 98 -116 34 -113 -88 -235 -201 -201 -50
15 -99 56 -116 98 -57 135 84 276 219 219z"/>
</g>
</svg>
