<?xml version="1.0" standalone="no"?>
<!DOCTYPE svg PUBLIC "-//W3C//DTD SVG 20010904//EN"
 "http://www.w3.org/TR/2001/REC-SVG-20010904/DTD/svg10.dtd">
<svg version="1.0" xmlns="http://www.w3.org/2000/svg"
 width="16.000000pt" height="16.000000pt" viewBox="0 0 16.000000 16.000000"
 preserveAspectRatio="xMidYMid meet">
<metadata>
Created by potrace 1.16, written by Peter Selinger 2001-2019
</metadata>
<g transform="translate(0.000000,16.000000) scale(0.005333,-0.005333)"
fill="#000000" stroke="none">
<path d="M565 2853 c-50 -12 -87 -39 -110 -78 -24 -40 -25 -50 -25 -202 l0
-161 -101 -4 c-86 -2 -103 -6 -115 -22 -20 -28 -17 -63 6 -86 17 -17 33 -20
115 -20 l95 0 0 -220 0 -220 -98 0 c-109 0 -132 -11 -132 -62 0 -46 27 -58
133 -58 l97 0 0 -220 0 -220 -98 0 c-109 0 -132 -11 -132 -62 0 -46 27 -58
133 -58 l97 0 0 -220 0 -220 -95 0 c-82 0 -98 -3 -115 -20 -23 -23 -26 -58 -6
-86 12 -16 29 -20 115 -22 l101 -4 0 -161 c0 -152 1 -162 25 -202 15 -26 39
-50 62 -61 36 -18 79 -19 1038 -19 843 0 1008 2 1050 14 36 11 65 30 106 70
96 94 89 0 89 1271 0 1271 6 1178 -88 1270 -32 31 -75 62 -97 70 -34 12 -191
15 -1035 16 -547 1 -1004 0 -1015 -3z m315 -1353 l0 -1230 -149 0 c-123 0
-152 3 -165 16 -13 13 -16 42 -16 160 l0 144 83 0 c103 0 131 13 135 62 5 54
-21 68 -130 68 l-88 0 0 220 0 220 98 0 c109 0 122 6 122 56 0 54 -19 64 -126
64 l-94 0 0 220 0 220 94 0 c107 0 126 10 126 64 0 50 -13 56 -122 56 l-98 0
0 220 0 220 88 0 c109 0 135 14 130 68 -4 49 -32 62 -135 62 l-83 0 0 144 c0
118 3 147 16 160 13 13 42 16 165 16 l149 0 0 -1230z m1712 1208 c21 -12 49
-38 61 -58 l22 -35 0 -1115 0 -1115 -22 -35 c-12 -20 -40 -46 -61 -58 l-40
-22 -776 0 -776 0 0 1230 0 1230 776 0 776 0 40 -22z"/>
</g>
</svg>
