<svg version="1.1" id="Layer_1" xmlns="http://www.w3.org/2000/svg" xmlns:xlink="http://www.w3.org/1999/xlink" x="0px" y="0px"
	 width="100%" viewBox="0 0 100 100" enable-background="new 0 0 100 100" xml:space="preserve">
<path fill="#000000" opacity="1.000000" stroke="none" d="M62.000000,101.000000 C41.333336,101.000000 21.166674,101.000000 1.000008,101.000000 C1.000005,67.666679 1.000005,34.333351 1.000003,1.000021 C34.333317,1.000014 67.666634,1.000014 100.999969,1.000007 C100.999977,34.333313 100.999977,67.666626 100.999985,100.999969 C88.166664,101.000000 75.333336,101.000000 62.000000,101.000000 M37.619171,69.779984 C36.518261,70.513969 35.510777,71.584206 34.299446,71.920776 C30.173349,73.067162 25.600534,73.235062 21.915537,75.153954 C18.562437,76.900017 14.440270,80.063072 13.726413,83.282158 C12.739885,87.730827 17.534365,90.032784 21.480545,91.680458 C21.936317,91.870758 22.443401,91.933968 22.915525,92.089912 C38.420712,97.211166 54.234989,96.990440 70.066139,94.357384 C74.885529,93.555817 79.724884,91.913170 84.119171,89.764305 C89.405434,87.179253 90.056778,81.646530 85.373062,78.159882 C82.065109,75.697372 77.758720,74.446228 73.748604,73.099289 C70.727692,72.084618 67.469780,71.775520 63.930561,71.075890 C67.810204,63.708782 71.520348,57.086151 74.842468,50.274281 C84.070160,31.353308 76.634720,14.580212 61.825558,8.339108 C50.941933,3.752366 41.215885,6.011737 32.615669,13.107169 C24.436666,19.855087 20.632420,29.235014 23.964817,39.359959 C27.344532,49.628662 32.800201,59.214111 37.619171,69.779984 z"/>
<path fill="#444847" opacity="1.000000" stroke="none" d="M37.482914,69.439392 C32.800201,59.214111 27.344532,49.628662 23.964817,39.359959 C20.632420,29.235014 24.436666,19.855087 32.615669,13.107169 C41.215885,6.011737 50.941933,3.752366 61.825558,8.339108 C76.634720,14.580212 84.070160,31.353308 74.842468,50.274281 C71.520348,57.086151 67.810204,63.708782 63.930561,71.075890 C67.469780,71.775520 70.727692,72.084618 73.748604,73.099289 C77.758720,74.446228 82.065109,75.697372 85.373062,78.159882 C90.056778,81.646530 89.405434,87.179253 84.119171,89.764305 C79.724884,91.913170 74.885529,93.555817 70.066139,94.357384 C54.234989,96.990440 38.420712,97.211166 22.915525,92.089912 C22.443401,91.933968 21.936317,91.870758 21.480545,91.680458 C17.534365,90.032784 12.739885,87.730827 13.726413,83.282158 C14.440270,80.063072 18.562437,76.900017 21.915537,75.153954 C25.600534,73.235062 30.173349,73.067162 34.299446,71.920776 C35.510777,71.584206 36.518261,70.513969 37.482914,69.439392 M31.468475,45.888237 C36.107430,57.610840 43.282951,67.761284 50.916122,78.377205 C59.916138,66.161392 68.194527,54.482639 72.280128,40.395489 C75.412148,29.596241 70.562721,18.679075 60.388378,13.786407 C50.717522,9.135857 38.976170,12.543783 32.718063,21.478508 C27.340956,29.155430 28.361532,37.048641 31.468475,45.888237 M44.262009,90.030243 C57.520306,91.370567 70.405388,90.528572 82.528709,83.237816 C78.617874,80.947853 74.623947,79.300644 70.510994,78.042595 C63.833157,76.000000 58.018181,76.030304 54.364708,83.730934 C52.671581,87.299637 49.509766,86.811790 47.058910,82.986679 C44.740707,79.368599 42.572548,75.864052 37.403198,77.042862 C32.909607,78.067574 28.368986,78.933502 23.951900,80.221863 C22.290499,80.706459 20.918205,82.182236 18.769924,83.644669 C27.007282,88.495468 34.978054,90.004768 44.262009,90.030243 z"/>
<path fill="#000000" opacity="1.000000" stroke="none" d="M31.312759,45.523010 C28.361532,37.048641 27.340956,29.155430 32.718063,21.478508 C38.976170,12.543783 50.717522,9.135857 60.388378,13.786407 C70.562721,18.679075 75.412148,29.596241 72.280128,40.395489 C68.194527,54.482639 59.916138,66.161392 50.916122,78.377205 C43.282951,67.761284 36.107430,57.610840 31.312759,45.523010 M52.210770,21.070450 C50.276394,21.392727 48.265034,21.479332 46.422043,22.081367 C40.840164,23.904755 37.809780,28.577866 38.017036,34.655025 C38.204487,40.151291 42.254330,45.320045 47.426376,46.664021 C52.997227,48.111626 58.765316,45.898632 61.794453,41.391449 C66.401085,34.537045 64.026237,23.335962 52.210770,21.070450 z"/>
<path fill="#000000" opacity="1.000000" stroke="none" d="M43.802917,90.020996 C34.978054,90.004768 27.007282,88.495468 18.769924,83.644669 C20.918205,82.182236 22.290499,80.706459 23.951900,80.221863 C28.368986,78.933502 32.909607,78.067574 37.403198,77.042862 C42.572548,75.864052 44.740707,79.368599 47.058910,82.986679 C49.509766,86.811790 52.671581,87.299637 54.364708,83.730934 C58.018181,76.030304 63.833157,76.000000 70.510994,78.042595 C74.623947,79.300644 78.617874,80.947853 82.528709,83.237816 C70.405388,90.528572 57.520306,91.370567 43.802917,90.020996 z"/>
<path fill="#444847" opacity="1.000000" stroke="none" d="M52.612099,21.118505 C64.026237,23.335962 66.401085,34.537045 61.794453,41.391449 C58.765316,45.898632 52.997227,48.111626 47.426376,46.664021 C42.254330,45.320045 38.204487,40.151291 38.017036,34.655025 C37.809780,28.577866 40.840164,23.904755 46.422043,22.081367 C48.265034,21.479332 50.276394,21.392727 52.612099,21.118505 M55.780289,28.495520 C52.652542,28.461491 49.075882,27.500908 46.556114,28.721737 C44.898014,29.525087 43.683697,33.754692 44.252254,35.932770 C44.813332,38.082222 47.642200,40.549141 49.896645,41.075356 C51.900532,41.543083 55.022972,40.107098 56.688057,38.507973 C59.711338,35.604462 58.313087,32.141163 55.780289,28.495520 z"/>
<path fill="#000000" opacity="1.000000" stroke="none" d="M56.053146,28.764423 C58.313087,32.141163 59.711338,35.604462 56.688057,38.507973 C55.022972,40.107098 51.900532,41.543083 49.896645,41.075356 C47.642200,40.549141 44.813332,38.082222 44.252254,35.932770 C43.683697,33.754692 44.898014,29.525087 46.556114,28.721737 C49.075882,27.500908 52.652542,28.461491 56.053146,28.764423 z"/>
</svg>