<svg version="1.1" id="Layer_1" xmlns="http://www.w3.org/2000/svg" xmlns:xlink="http://www.w3.org/1999/xlink" x="0px" y="0px"
	 width="100%" viewBox="0 0 100 100" enable-background="new 0 0 100 100" xml:space="preserve">
<path fill="#000000" opacity="1.000000" stroke="none" d="M101.000000,40.000000 C101.000000,60.666660 101.000000,80.833321 101.000000,100.999985 C67.666679,100.999992 34.333366,100.999992 1.000036,101.000000 C1.000024,67.666695 1.000024,34.333385 1.000012,1.000058 C34.333298,1.000039 67.666595,1.000039 100.999947,1.000019 C101.000000,13.833333 101.000000,26.666666 101.000000,40.000000 M28.699625,11.116336 C10.480071,21.404364 1.749315,41.608101 6.986731,62.469280 C14.135414,90.943245 42.978725,102.844879 68.540787,93.045158 C94.935692,82.926132 103.452873,51.320866 90.361099,27.616398 C89.357018,25.798372 89.001221,23.410328 89.007278,21.289127 C89.021233,16.405453 85.408577,12.896550 80.464935,13.016204 C78.507622,13.063579 76.304214,12.683434 74.596474,11.775999 C59.650623,3.834284 44.624821,3.350071 28.699625,11.116336 z"/>
<path fill="#444847" opacity="1.000000" stroke="none" d="M29.049541,10.985132 C44.624821,3.350071 59.650623,3.834284 74.596474,11.775999 C76.304214,12.683434 78.507622,13.063579 80.464935,13.016204 C85.408577,12.896550 89.021233,16.405453 89.007278,21.289127 C89.001221,23.410328 89.357018,25.798372 90.361099,27.616398 C103.452873,51.320866 94.935692,82.926132 68.540787,93.045158 C42.978725,102.844879 14.135414,90.943245 6.986731,62.469280 C1.749315,41.608101 10.480071,21.404364 29.049541,10.985132 M41.262974,31.314875 C41.238056,30.846521 41.367176,30.294193 41.164635,29.922672 C38.886372,25.743626 40.368385,21.970581 43.893780,20.126446 C46.228020,18.905401 50.635181,18.893089 52.603973,20.362841 C55.677299,22.657148 57.321060,26.670471 54.116623,30.663347 C53.008366,32.044281 52.002670,33.507526 50.121792,36.055145 C54.492775,37.442371 59.372200,40.725086 62.005165,39.432346 C66.274834,37.336018 70.175369,37.371571 75.269218,37.678337 C74.884026,32.510040 74.202240,27.772552 74.272896,23.046312 C74.340965,18.492800 71.607712,16.634470 68.166420,15.083867 C54.397156,8.879590 41.097267,9.684835 28.595930,18.259651 C18.088636,25.466732 12.453563,35.586670 11.355656,48.695347 C13.748571,48.189285 15.608369,47.795971 17.515625,47.392624 C15.247889,41.269341 16.753763,33.766132 22.655676,33.272270 C28.653667,32.770370 34.648895,32.235432 41.262974,31.314875 M58.389919,79.688362 C61.515762,81.581032 64.474609,83.879654 67.813950,85.253334 C71.222389,86.655472 74.891754,83.890610 74.921944,80.110641 C75.020325,67.795685 74.921768,55.479027 74.852791,43.163280 C74.849617,42.597809 74.398254,42.034847 73.720810,40.459641 C71.466957,42.700924 69.566147,44.386650 67.906609,46.283470 C64.314003,50.389763 60.844944,54.604160 56.247669,60.051243 C56.742279,64.941505 57.448261,71.921654 58.389919,79.688362 M87.549622,66.852821 C90.031746,59.456280 92.058823,52.137810 90.198753,44.084442 C89.207436,39.792431 87.924530,39.012451 83.557777,39.655151 C79.315239,40.279568 78.868065,42.147045 78.970207,45.497929 C79.106728,49.976902 79.000694,54.463249 79.000183,58.946430 C78.999466,65.170143 79.000000,71.393852 79.000000,77.617561 C79.470695,77.759323 79.941391,77.901085 80.412086,78.042847 C82.661102,74.533035 84.910118,71.023224 87.549622,66.852821 M17.439104,51.117218 C15.688959,52.933487 10.863038,50.138386 11.263815,54.967575 C11.661520,59.759766 13.064566,63.886459 18.786488,65.180405 C22.118752,65.933952 25.279264,67.628914 28.377712,69.178856 C31.013391,70.497307 32.772152,69.135651 32.627071,67.056763 C32.211330,61.099579 31.115320,55.189873 30.149603,48.280167 C26.113955,51.396282 22.664494,54.503830 17.439104,51.117218 M30.993851,80.153366 C30.789579,75.179390 24.596785,71.021477 15.201148,70.458618 C19.735649,75.076546 23.422501,78.997208 27.299459,82.719872 C29.791241,85.112480 31.059597,84.173706 30.993851,80.153366 M85.837708,31.710598 C84.077652,30.546768 82.317589,29.382938 80.557533,28.219109 C79.929726,30.822529 79.301910,33.425949 78.567863,36.469902 C81.433723,36.214699 83.241600,36.451427 84.609955,35.785301 C85.454323,35.374256 85.628845,33.587238 85.837708,31.710598 M82.665962,18.000641 C81.201492,18.603495 79.737030,19.206348 78.272560,19.809202 C78.779381,20.918625 79.037140,22.314272 79.874954,23.043301 C80.500389,23.587517 82.756767,23.442204 82.782219,23.311317 C83.103508,21.659332 83.151253,19.954147 82.665962,18.000641 M29.790293,44.332470 C28.453642,40.825619 26.136227,40.833172 23.598419,41.630478 C23.379549,42.318192 23.160679,43.005909 22.941809,43.693623 C25.160711,44.147625 27.379614,44.601624 29.790293,44.332470 z"/>
<path fill="#000000" opacity="1.000000" stroke="none" d="M40.954155,31.514915 C34.648895,32.235432 28.653667,32.770370 22.655676,33.272270 C16.753763,33.766132 15.247889,41.269341 17.515625,47.392624 C15.608369,47.795971 13.748571,48.189285 11.355656,48.695347 C12.453563,35.586670 18.088636,25.466732 28.595930,18.259651 C41.097267,9.684835 54.397156,8.879590 68.166420,15.083867 C71.607712,16.634470 74.340965,18.492800 74.272896,23.046312 C74.202240,27.772552 74.884026,32.510040 75.269218,37.678337 C70.175369,37.371571 66.274834,37.336018 62.005165,39.432346 C59.372200,40.725086 54.492775,37.442371 50.121792,36.055145 C52.002670,33.507526 53.008366,32.044281 54.116623,30.663347 C57.321060,26.670471 55.677299,22.657148 52.603973,20.362841 C50.635181,18.893089 46.228020,18.905401 43.893780,20.126446 C40.368385,21.970581 38.886372,25.743626 41.164635,29.922672 C41.367176,30.294193 41.238056,30.846521 40.954155,31.514915 z"/>
<path fill="#000000" opacity="1.000000" stroke="none" d="M58.272083,79.295090 C57.448261,71.921654 56.742279,64.941505 56.247669,60.051243 C60.844944,54.604160 64.314003,50.389763 67.906609,46.283470 C69.566147,44.386650 71.466957,42.700924 73.720810,40.459641 C74.398254,42.034847 74.849617,42.597809 74.852791,43.163280 C74.921768,55.479027 75.020325,67.795685 74.921944,80.110641 C74.891754,83.890610 71.222389,86.655472 67.813950,85.253334 C64.474609,83.879654 61.515762,81.581032 58.272083,79.295090 z"/>
<path fill="#000000" opacity="1.000000" stroke="none" d="M87.354385,67.183121 C84.910118,71.023224 82.661102,74.533035 80.412086,78.042847 C79.941391,77.901085 79.470695,77.759323 79.000000,77.617561 C79.000000,71.393852 78.999466,65.170143 79.000183,58.946430 C79.000694,54.463249 79.106728,49.976902 78.970207,45.497929 C78.868065,42.147045 79.315239,40.279568 83.557777,39.655151 C87.924530,39.012451 89.207436,39.792431 90.198753,44.084442 C92.058823,52.137810 90.031746,59.456280 87.354385,67.183121 z"/>
<path fill="#000000" opacity="1.000000" stroke="none" d="M17.833288,51.113182 C22.664494,54.503830 26.113955,51.396282 30.149603,48.280167 C31.115320,55.189873 32.211330,61.099579 32.627071,67.056763 C32.772152,69.135651 31.013391,70.497307 28.377712,69.178856 C25.279264,67.628914 22.118752,65.933952 18.786488,65.180405 C13.064566,63.886459 11.661520,59.759766 11.263815,54.967575 C10.863038,50.138386 15.688959,52.933487 17.833288,51.113182 z"/>
<path fill="#000000" opacity="1.000000" stroke="none" d="M30.991528,80.532379 C31.059597,84.173706 29.791241,85.112480 27.299459,82.719872 C23.422501,78.997208 19.735649,75.076546 15.201148,70.458618 C24.596785,71.021477 30.789579,75.179390 30.991528,80.532379 z"/>
<path fill="#000000" opacity="1.000000" stroke="none" d="M85.970901,32.064285 C85.628845,33.587238 85.454323,35.374256 84.609955,35.785301 C83.241600,36.451427 81.433723,36.214699 78.567863,36.469902 C79.301910,33.425949 79.929726,30.822529 80.557533,28.219109 C82.317589,29.382938 84.077652,30.546768 85.970901,32.064285 z"/>
<path fill="#000000" opacity="1.000000" stroke="none" d="M82.967407,18.131596 C83.151253,19.954147 83.103508,21.659332 82.782219,23.311317 C82.756767,23.442204 80.500389,23.587517 79.874954,23.043301 C79.037140,22.314272 78.779381,20.918625 78.272560,19.809202 C79.737030,19.206348 81.201492,18.603495 82.967407,18.131596 z"/>
<path fill="#000000" opacity="1.000000" stroke="none" d="M29.694405,44.694046 C27.379614,44.601624 25.160711,44.147625 22.941809,43.693623 C23.160679,43.005909 23.379549,42.318192 23.598419,41.630478 C26.136227,40.833172 28.453642,40.825619 29.694405,44.694046 z"/>
</svg>