<?xml version="1.0" standalone="no"?>
<!DOCTYPE svg PUBLIC "-//W3C//DTD SVG 20010904//EN"
 "http://www.w3.org/TR/2001/REC-SVG-20010904/DTD/svg10.dtd">
<svg version="1.0" xmlns="http://www.w3.org/2000/svg"
 width="20.000000pt" height="20.000000pt" viewBox="0 0 20.000000 20.000000"
 preserveAspectRatio="xMidYMid meet">
<metadata>
Created by potrace 1.16, written by Peter Selinger 2001-2019
</metadata>
<g transform="translate(0.000000,20.000000) scale(0.006667,-0.006667)"
fill="#000000" stroke="none">
<path d="M194 2246 c-39 -39 -45 -86 -19 -136 33 -64 -49 -60 1325 -60 1374 0
1292 -4 1325 60 26 50 20 97 -19 136 l-34 34 -1272 0 -1272 0 -34 -34z"/>
<path d="M222 1603 c-83 -41 -82 -167 2 -207 31 -15 147 -16 1276 -16 1129 0
1245 1 1276 16 85 41 85 167 0 208 -31 15 -147 16 -1278 16 -1128 0 -1246 -2
-1276 -17z"/>
<path d="M218 934 c-35 -18 -58 -62 -58 -110 0 -28 8 -44 34 -70 l34 -34 1272
0 1272 0 34 34 c39 39 45 86 19 136 -33 64 49 60 -1327 60 -1089 -1 -1257 -3
-1280 -16z"/>
</g>
</svg>
