<?xml version="1.0" standalone="no"?>
<!DOCTYPE svg PUBLIC "-//W3C//DTD SVG 20010904//EN"
 "http://www.w3.org/TR/2001/REC-SVG-20010904/DTD/svg10.dtd">
<svg version="1.0" xmlns="http://www.w3.org/2000/svg"
 width="16.000000pt" height="16.000000pt" viewBox="0 0 16.000000 16.000000"
 preserveAspectRatio="xMidYMid meet">
<metadata>
Created by potrace 1.16, written by Peter Selinger 2001-2019
</metadata>
<g transform="translate(0.000000,16.000000) scale(0.005333,-0.005333)"
fill="#000000" stroke="none">
<path d="M1335 2884 c-328 -48 -588 -176 -813 -397 -196 -194 -322 -423 -384
-698 -20 -88 -23 -132 -23 -289 0 -157 3 -201 23 -289 61 -272 181 -492 375
-689 194 -196 423 -322 698 -384 88 -20 132 -23 289 -23 157 0 201 3 289 23
275 62 504 188 698 384 194 197 314 417 375 689 20 88 23 132 23 289 0 201
-17 311 -72 464 -118 329 -373 620 -678 773 -212 107 -359 143 -600 148 -93 2
-183 1 -200 -1z m385 -140 c262 -47 477 -161 670 -354 246 -246 373 -548 373
-890 0 -299 -111 -600 -301 -819 l-38 -43 -38 58 c-151 229 -388 383 -681 445
-77 17 -333 17 -410 0 -293 -62 -530 -216 -681 -445 l-38 -58 -38 43 c-190
219 -301 520 -301 819 0 326 121 628 346 867 295 312 717 451 1137 377z m-23
-1733 c98 -20 219 -68 310 -123 82 -49 217 -180 273 -267 l50 -75 -32 -26
c-386 -308 -903 -370 -1343 -160 -76 37 -185 105 -253 160 l-32 26 50 75 c56
87 191 218 273 267 213 128 467 172 704 123z"/>
<path d="M1395 2556 c-155 -38 -283 -165 -341 -336 -15 -44 -19 -85 -19 -200
0 -115 4 -156 19 -200 66 -194 223 -330 402 -346 142 -13 288 42 384 144 95
102 130 208 130 402 0 201 -36 306 -140 410 -67 67 -138 106 -227 125 -81 17
-141 18 -208 1z m247 -148 c70 -32 133 -96 167 -168 25 -52 26 -63 26 -220 0
-158 -1 -168 -26 -221 -73 -154 -253 -236 -408 -184 -73 24 -161 108 -203 193
-33 66 -33 68 -33 212 0 144 0 146 33 212 38 78 129 168 194 192 66 24 179 17
250 -16z"/>
</g>
</svg>
