<svg version="1.1" id="Layer_1" xmlns="http://www.w3.org/2000/svg" xmlns:xlink="http://www.w3.org/1999/xlink" x="0px" y="0px"
	 width="100%" viewBox="0 0 100 100" enable-background="new 0 0 100 100" xml:space="preserve">
<path fill="#000000" opacity="1.000000" stroke="none" d="M55.000000,101.000000 C36.666668,101.000000 18.833340,101.000000 1.000007,101.000000 C1.000005,67.666679 1.000005,34.333351 1.000002,1.000021 C34.333317,1.000014 67.666634,1.000014 100.999969,1.000007 C100.999977,34.333313 100.999977,67.666626 100.999985,100.999969 C85.833336,101.000000 70.666664,101.000000 55.000000,101.000000 M36.671150,6.003961 C17.050762,6.795245 1.678776,27.443340 6.576314,46.930279 C8.515199,54.644955 12.707907,62.012596 8.084371,70.093651 C7.866536,70.474380 8.042249,71.077003 8.024348,71.575912 C7.889080,75.345963 9.746444,77.296913 13.465527,76.907562 C15.542089,76.690163 17.510794,75.560356 19.589945,75.224182 C23.387270,74.610191 27.220158,74.086693 31.057272,73.880966 C35.861774,73.623375 40.713932,73.992836 45.481640,73.488159 C46.731342,73.355881 47.744713,70.991028 48.866619,69.651474 C47.354214,69.020721 45.856384,67.912666 44.326145,67.865929 C41.731968,67.786720 38.826611,69.264175 36.564930,68.522758 C29.311993,66.145157 22.473923,66.101631 15.733739,69.869881 C15.534408,69.981323 15.134461,69.733932 14.660480,69.610039 C14.895025,68.182449 14.778790,66.560349 15.429384,65.350670 C17.719671,61.092243 16.923309,57.440010 14.843174,53.181671 C12.111493,47.589531 10.543234,41.593044 11.943141,34.994537 C14.406880,23.381630 23.030830,14.153775 34.125618,12.152147 C43.976273,10.374975 54.941463,15.584628 60.522072,25.347404 C63.907383,31.269720 66.183388,37.625481 64.379280,44.837654 C64.032372,46.224491 65.868835,48.157497 66.698044,49.838543 C67.792961,48.358360 69.433662,47.015232 69.848259,45.364216 C70.399078,43.170708 69.921661,40.734333 70.010826,38.407089 C70.637741,22.044878 55.416729,4.792284 36.671150,6.003961 M88.879326,58.686672 C86.410248,56.476276 84.200966,52.924675 81.408501,52.383736 C77.636780,51.653118 73.424782,53.642704 69.387032,53.722424 C64.566750,53.817596 59.002514,56.630486 55.496189,49.968739 C54.710693,48.476364 50.322388,48.078335 47.885361,48.584740 C46.605923,48.850597 45.134087,52.208836 45.232754,54.092930 C45.362267,56.566116 46.702782,59.103813 47.968117,61.364315 C51.090515,66.942444 54.467083,72.378311 57.830757,78.021141 C54.208603,78.021141 51.109585,77.994446 48.011219,78.027924 C44.165993,78.069466 41.605976,79.876236 41.127758,83.781876 C40.620697,87.923088 43.649673,89.171410 46.878170,89.967094 C54.746937,91.906387 62.648521,93.714035 70.506454,95.695419 C80.261909,98.155258 98.755417,88.333572 95.761444,74.233284 C94.660080,69.046356 91.408470,64.316002 88.879326,58.686672 M35.710281,47.804920 C37.089798,47.282051 38.984417,47.158470 39.755402,46.163883 C42.415421,42.732399 44.412403,38.774323 47.162273,35.427979 C51.626686,29.995199 50.489933,23.688406 44.184906,20.647346 C39.876789,18.569441 35.492874,18.326023 31.282625,20.514208 C29.678719,21.347803 28.151636,23.021666 27.453783,24.676939 C26.938215,25.899837 27.822834,27.713043 28.083628,29.263250 C29.515913,28.878515 30.965298,28.545216 32.370209,28.078144 C32.799614,27.935389 33.098476,27.415724 33.471367,27.084719 C36.334595,24.543098 39.215908,24.599506 41.750652,27.410799 C44.488434,30.447277 41.598309,32.393234 39.781445,33.925919 C35.422115,37.603390 32.207951,41.435741 35.710281,47.804920 M37.225166,60.903221 C38.406227,59.265320 39.587288,57.627415 40.768353,55.989513 C39.236572,55.023354 37.786716,53.572178 36.138756,53.293827 C35.303551,53.152756 33.499687,54.980309 33.209190,56.178562 C32.635925,58.543167 33.096638,60.889194 37.225166,60.903221 z"/>
<path fill="#444847" opacity="1.000000" stroke="none" d="M37.126366,6.002843 C55.416729,4.792284 70.637741,22.044878 70.010826,38.407089 C69.921661,40.734333 70.399078,43.170708 69.848259,45.364216 C69.433662,47.015232 67.792961,48.358360 66.698044,49.838543 C65.868835,48.157497 64.032372,46.224491 64.379280,44.837654 C66.183388,37.625481 63.907383,31.269720 60.522072,25.347404 C54.941463,15.584628 43.976273,10.374975 34.125618,12.152147 C23.030830,14.153775 14.406880,23.381630 11.943141,34.994537 C10.543234,41.593044 12.111493,47.589531 14.843174,53.181671 C16.923309,57.440010 17.719671,61.092243 15.429384,65.350670 C14.778790,66.560349 14.895025,68.182449 14.660480,69.610039 C15.134461,69.733932 15.534408,69.981323 15.733739,69.869881 C22.473923,66.101631 29.311993,66.145157 36.564930,68.522758 C38.826611,69.264175 41.731968,67.786720 44.326145,67.865929 C45.856384,67.912666 47.354214,69.020721 48.866615,69.651474 C47.744713,70.991028 46.731342,73.355881 45.481640,73.488159 C40.713932,73.992836 35.861774,73.623375 31.057272,73.880966 C27.220158,74.086693 23.387270,74.610191 19.589945,75.224182 C17.510794,75.560356 15.542089,76.690163 13.465527,76.907562 C9.746444,77.296913 7.889080,75.345963 8.024348,71.575912 C8.042249,71.077003 7.866536,70.474380 8.084371,70.093651 C12.707907,62.012596 8.515199,54.644955 6.576314,46.930279 C1.678776,27.443340 17.050762,6.795245 37.126366,6.002843 z"/>
<path fill="#444847" opacity="1.000000" stroke="none" d="M89.008492,59.032032 C91.408470,64.316002 94.660080,69.046356 95.761444,74.233284 C98.755417,88.333572 80.261909,98.155258 70.506454,95.695419 C62.648521,93.714035 54.746937,91.906387 46.878170,89.967094 C43.649673,89.171410 40.620697,87.923088 41.127758,83.781876 C41.605976,79.876236 44.165993,78.069466 48.011219,78.027924 C51.109585,77.994446 54.208603,78.021141 57.830757,78.021141 C54.467083,72.378311 51.090515,66.942444 47.968117,61.364315 C46.702782,59.103813 45.362267,56.566116 45.232754,54.092930 C45.134087,52.208836 46.605923,48.850597 47.885361,48.584740 C50.322388,48.078335 54.710693,48.476364 55.496189,49.968739 C59.002514,56.630486 64.566750,53.817596 69.387032,53.722424 C73.424782,53.642704 77.636780,51.653118 81.408501,52.383736 C84.200966,52.924675 86.410248,56.476276 89.008492,59.032032 M67.158905,62.469280 C65.902634,61.124725 64.646362,59.780170 63.390083,58.435616 C62.951954,58.808598 62.513824,59.181583 62.075695,59.554569 C63.405426,61.912140 64.939354,64.185112 65.967796,66.667511 C66.399696,67.710014 65.762009,69.195625 65.610573,70.479797 C64.478600,70.112267 63.050880,70.049698 62.283855,69.305847 C61.128521,68.185417 60.430515,66.591606 59.546143,65.193932 C56.775318,60.814884 54.008266,56.433460 51.239754,52.052956 C50.735168,52.249855 50.230583,52.446751 49.725998,52.643650 C49.969494,53.776997 49.943047,55.068363 50.499306,56.018627 C54.843449,63.439816 59.369656,70.755203 63.651924,78.211075 C64.363914,79.450737 64.163391,81.214485 64.384544,82.736053 C63.174492,82.858170 61.957741,83.129189 60.755615,83.075104 C56.794411,82.896873 52.840538,82.521065 48.878780,82.420174 C48.120556,82.400864 47.339283,83.286301 45.377106,84.477966 C54.026039,86.677078 61.475601,88.550735 68.913864,90.468254 C76.330597,92.380226 84.882324,89.307343 89.351784,83.008148 C91.725754,79.662292 92.241844,75.891205 90.500290,72.253151 C88.145004,67.333031 85.348328,62.621944 82.654892,57.869995 C82.425423,57.465160 81.548622,57.427242 80.978447,57.221004 C80.121910,59.273018 79.365929,61.084133 78.609947,62.895248 C77.797592,63.390209 76.985229,63.885174 76.172874,64.380135 C75.066154,61.914871 73.959427,59.449604 72.852707,56.984341 C72.419579,57.375156 71.986450,57.765976 71.553322,58.156792 C71.998558,60.941555 72.443787,63.726315 72.889023,66.511078 C72.309662,66.742401 71.730293,66.973717 71.150932,67.205040 C69.948196,65.824638 68.745468,64.444237 67.158905,62.469280 z"/>
<path fill="#444847" opacity="1.000000" stroke="none" d="M35.318169,47.667046 C32.207951,41.435741 35.422115,37.603390 39.781445,33.925919 C41.598309,32.393234 44.488434,30.447277 41.750652,27.410799 C39.215908,24.599506 36.334595,24.543098 33.471367,27.084719 C33.098476,27.415724 32.799614,27.935389 32.370209,28.078144 C30.965298,28.545216 29.515913,28.878515 28.083628,29.263250 C27.822834,27.713043 26.938215,25.899837 27.453783,24.676939 C28.151636,23.021666 29.678719,21.347803 31.282625,20.514208 C35.492874,18.326023 39.876789,18.569441 44.184906,20.647346 C50.489933,23.688406 51.626686,29.995199 47.162273,35.427979 C44.412403,38.774323 42.415421,42.732399 39.755402,46.163883 C38.984417,47.158470 37.089798,47.282051 35.318169,47.667046 z"/>
<path fill="#444847" opacity="1.000000" stroke="none" d="M36.828995,60.913895 C33.096638,60.889194 32.635925,58.543167 33.209190,56.178562 C33.499687,54.980309 35.303551,53.152756 36.138756,53.293827 C37.786716,53.572178 39.236572,55.023354 40.768353,55.989513 C39.587288,57.627415 38.406227,59.265320 36.828995,60.913895 z"/>
<path fill="#000000" opacity="1.000000" stroke="none" d="M67.350815,62.766556 C68.745468,64.444237 69.948196,65.824638 71.150932,67.205040 C71.730293,66.973717 72.309662,66.742401 72.889023,66.511078 C72.443787,63.726315 71.998558,60.941555 71.553322,58.156792 C71.986450,57.765976 72.419579,57.375156 72.852707,56.984341 C73.959427,59.449604 75.066154,61.914871 76.172874,64.380135 C76.985229,63.885174 77.797592,63.390209 78.609947,62.895248 C79.365929,61.084133 80.121910,59.273018 80.978447,57.221004 C81.548622,57.427242 82.425423,57.465160 82.654892,57.869995 C85.348328,62.621944 88.145004,67.333031 90.500290,72.253151 C92.241844,75.891205 91.725754,79.662292 89.351784,83.008148 C84.882324,89.307343 76.330597,92.380226 68.913864,90.468254 C61.475601,88.550735 54.026039,86.677078 45.377106,84.477966 C47.339283,83.286301 48.120556,82.400864 48.878780,82.420174 C52.840538,82.521065 56.794411,82.896873 60.755615,83.075104 C61.957741,83.129189 63.174492,82.858170 64.384544,82.736053 C64.163391,81.214485 64.363914,79.450737 63.651924,78.211075 C59.369656,70.755203 54.843449,63.439816 50.499306,56.018627 C49.943047,55.068363 49.969494,53.776997 49.725998,52.643650 C50.230583,52.446751 50.735168,52.249855 51.239754,52.052956 C54.008266,56.433460 56.775318,60.814884 59.546143,65.193932 C60.430515,66.591606 61.128521,68.185417 62.283855,69.305847 C63.050880,70.049698 64.478600,70.112267 65.610573,70.479797 C65.762009,69.195625 66.399696,67.710014 65.967796,66.667511 C64.939354,64.185112 63.405426,61.912140 62.075695,59.554569 C62.513824,59.181583 62.951954,58.808598 63.390083,58.435616 C64.646362,59.780170 65.902634,61.124725 67.350815,62.766556 z"/>
</svg>