<svg version="1.1" id="Layer_1" xmlns="http://www.w3.org/2000/svg" xmlns:xlink="http://www.w3.org/1999/xlink" x="0px" y="0px"
	 width="100%" viewBox="0 0 100 100" enable-background="new 0 0 100 100" xml:space="preserve">
<path fill="#F1F2F1" opacity="1.000000" stroke="none" 
	d="
M25.000000,1.000000 
	C46.020893,1.000000 67.041786,1.000000 88.532951,1.453922 
	C89.003220,4.161909 89.003220,6.415975 89.003220,9.023215 
	C91.832054,9.023215 94.223618,9.023215 96.836998,9.023215 
	C96.836998,15.922780 96.836998,22.464769 96.510956,29.067286 
	C95.399086,30.034245 94.613266,30.940674 93.690903,32.004601 
	C90.671722,28.007725 87.095352,25.285847 88.551506,19.235926 
	C89.812355,13.997466 85.755562,11.571038 79.751297,11.940106 
	C77.524384,12.076990 74.999825,11.510324 73.001045,10.495951 
	C64.797348,6.332606 56.049126,5.091266 47.041019,5.198945 
	C38.555168,5.300381 31.076311,8.612781 23.858879,12.715796 
	C22.143782,12.619719 20.570457,12.809288 18.811813,12.730614 
	C18.083138,11.367302 17.539780,10.272234 17.444117,9.099863 
	C20.242197,9.022559 22.592581,9.022559 25.000000,9.022559 
	C25.000000,5.865020 25.000000,3.432510 25.000000,1.000000 
z"/>
<path fill="#000000" opacity="1.000000" stroke="none" 
	d="
M33.000000,101.000000 
	C22.424070,101.000000 11.848140,101.000000 1.000000,101.000000 
	C1.000000,94.648605 1.000000,88.293350 1.454264,81.468384 
	C4.152880,80.998680 6.397233,80.998680 9.131607,80.998680 
	C9.131607,83.907684 9.131607,86.423538 9.131607,88.840813 
	C11.751796,88.840813 13.874104,88.840813 16.212694,88.917992 
	C16.428976,88.995171 16.886049,89.040108 16.940704,89.489944 
	C16.995358,92.174431 16.995358,94.409081 16.995358,96.842758 
	C21.929762,96.842758 26.462574,96.842758 31.385044,96.926277 
	C32.183136,98.339867 32.591568,99.669930 33.000000,101.000000 
z"/>
<path fill="#EEEFEE" opacity="1.000000" stroke="none" 
	d="
M33.468658,101.000000 
	C32.591568,99.669930 32.183136,98.339867 31.348694,96.593597 
	C30.612022,95.114807 30.301363,94.052208 30.386272,92.992920 
	C32.960785,93.713280 35.187832,94.311256 37.310123,95.168549 
	C45.358166,98.419548 53.772423,98.011787 61.681896,95.854408 
	C68.055557,94.115944 75.187233,92.809128 79.746407,86.876602 
	C80.166626,86.329796 81.229279,86.276703 82.292358,86.017082 
	C83.061241,86.360092 83.531387,86.680389 84.000366,87.249802 
	C83.999214,87.498932 83.997383,87.997185 83.696548,88.130394 
	C78.496216,89.975540 81.431587,93.870026 80.567291,96.904739 
	C77.882812,96.980232 75.640633,96.980232 73.000000,96.980232 
	C73.000000,98.528938 73.000000,99.764465 73.000000,101.000000 
	C59.979107,101.000000 46.958210,101.000000 33.468658,101.000000 
z"/>
<path fill="#EEEFEF" opacity="1.000000" stroke="none" 
	d="
M18.997135,12.998857 
	C20.570457,12.809288 22.143782,12.619719 23.666878,12.989891 
	C12.278571,23.459869 3.974394,34.798866 5.612664,51.073872 
	C5.165262,53.436287 5.087921,55.719189 5.015929,58.383247 
	C6.011314,62.175533 7.001350,65.586662 7.589284,68.989662 
	C3.496607,68.778793 4.097208,66.021606 3.992921,63.655632 
	C3.899666,61.539917 4.754852,58.776451 1.000000,59.000000 
	C1.000000,47.979103 1.000000,36.958210 1.441737,25.470154 
	C6.116681,25.848957 9.534228,24.633923 12.264407,20.812355 
	C14.688267,18.081911 16.842701,15.540384 18.997135,12.998857 
z"/>
<path fill="#000001" opacity="1.000000" stroke="none" 
	d="
M73.468658,101.000000 
	C73.000000,99.764465 73.000000,98.528938 73.000000,96.980232 
	C75.640633,96.980232 77.882812,96.980232 81.014313,96.983162 
	C84.253784,96.986092 86.603943,96.986092 89.107841,96.986092 
	C89.107841,93.896202 89.107841,91.470840 89.554321,89.024963 
	C92.214279,89.004433 94.427750,89.004433 96.832939,89.004433 
	C96.832939,86.077370 96.832939,83.540405 96.911316,80.570450 
	C97.005829,77.796013 97.021957,75.454552 97.431488,73.060692 
	C98.883263,73.005524 99.941635,73.002754 101.000000,73.000000 
	C101.000000,82.259789 101.000000,91.519585 101.000000,101.000000 
	C91.980301,101.000000 82.958809,101.000000 73.468658,101.000000 
z"/>
<path fill="#010101" opacity="1.000000" stroke="none" 
	d="
M24.531307,1.000000 
	C25.000000,3.432510 25.000000,5.865020 25.000000,9.022559 
	C22.592581,9.022559 20.242197,9.022559 16.997644,9.018235 
	C13.823117,9.013911 11.542757,9.013911 8.961572,9.013911 
	C8.961572,11.947096 8.961572,14.417975 8.522517,16.940222 
	C5.722309,16.994392 3.361154,16.997196 1.000000,17.000000 
	C1.000000,11.725722 1.000000,6.451444 1.000000,1.000000 
	C8.686861,1.000000 16.374739,1.000000 24.531307,1.000000 
z"/>
<path fill="#F0F2F1" opacity="1.000000" stroke="none" 
	d="
M97.038078,73.113098 
	C97.021957,75.454552 97.005829,77.796013 96.525879,80.569321 
	C94.041374,80.334114 92.020683,79.667061 89.999977,78.624939 
	C89.999664,77.499741 89.999374,76.749611 90.141441,75.671951 
	C91.776268,72.623253 93.994720,70.060478 94.629288,67.152115 
	C96.801231,57.197666 98.828491,47.158451 95.624794,36.938755 
	C95.290482,35.872303 96.568024,34.300564 97.487747,32.977440 
	C98.918510,32.994404 99.959259,32.997200 101.000000,33.000000 
	C101.000000,43.354229 101.000000,53.708454 100.583122,64.533340 
	C94.109566,65.772842 98.209419,70.459679 97.038078,73.113098 
z"/>
<path fill="#F2F3F2" opacity="1.000000" stroke="none" 
	d="
M1.000000,59.468578 
	C4.754852,58.776451 3.899666,61.539917 3.992921,63.655632 
	C4.097208,66.021606 3.496607,68.778793 7.865573,69.189011 
	C10.697928,73.263275 12.851892,77.130066 14.682722,81.044014 
	C14.905196,83.674385 15.450805,86.257599 15.996412,88.840813 
	C13.874104,88.840813 11.751796,88.840813 9.131607,88.840813 
	C9.131607,86.423538 9.131607,83.907684 9.131607,80.998680 
	C6.397233,80.998680 4.152880,80.998680 1.454264,80.999344 
	C1.000000,73.979050 1.000000,66.958107 1.000000,59.468578 
z"/>
<path fill="#000100" opacity="1.000000" stroke="none" 
	d="
M101.000000,32.531342 
	C99.959259,32.997200 98.918510,32.994404 97.434196,32.583241 
	C96.939415,31.118835 96.888206,30.062796 96.836998,29.006758 
	C96.836998,22.464769 96.836998,15.922780 96.836998,9.023215 
	C94.223618,9.023215 91.832054,9.023215 89.003220,9.023215 
	C89.003220,6.415975 89.003220,4.161909 89.001610,1.453922 
	C92.959785,1.000000 96.919571,1.000000 101.000000,1.000000 
	C101.000000,11.353979 101.000000,21.708330 101.000000,32.531342 
z"/>
<path fill="#FFFFFF" opacity="1.000000" stroke="none" 
	d="
M1.000000,17.444164 
	C3.361154,16.997196 5.722309,16.994392 8.533964,17.337122 
	C9.987971,18.788860 10.991476,19.895065 11.994982,21.001270 
	C9.534228,24.633923 6.116681,25.848957 1.441737,25.001495 
	C1.000000,22.629442 1.000000,20.258884 1.000000,17.444164 
z"/>
<path fill="#FCFBFB" opacity="1.000000" stroke="none" 
	d="
M97.431488,73.060692 
	C98.209419,70.459679 94.109566,65.772842 100.583122,65.001999 
	C101.000000,67.370560 101.000000,69.741112 101.000000,72.555832 
	C99.941635,73.002754 98.883263,73.005524 97.431488,73.060692 
z"/>
<path fill="#F6FDF9" opacity="1.000000" stroke="none" 
	d="
M96.510956,29.067286 
	C96.888206,30.062796 96.939415,31.118835 97.044174,32.569069 
	C96.568024,34.300564 95.290482,35.872303 95.624794,36.938755 
	C98.828491,47.158451 96.801231,57.197666 94.629288,67.152115 
	C93.994720,70.060478 91.776268,72.623253 89.785324,75.712173 
	C88.524376,77.386101 87.761887,78.692284 86.701675,80.144104 
	C84.933838,82.191269 83.463722,84.092812 81.993607,85.994354 
	C81.229279,86.276703 80.166626,86.329796 79.746407,86.876602 
	C75.187233,92.809128 68.055557,94.115944 61.681896,95.854408 
	C53.772423,98.011787 45.358166,98.419548 37.310123,95.168549 
	C35.187832,94.311256 32.960785,93.713280 30.127293,92.817863 
	C28.649900,92.092194 27.827057,91.544876 26.790194,90.733307 
	C22.719400,87.311653 18.862627,84.154259 15.005856,80.996857 
	C12.851892,77.130066 10.697928,73.263275 8.267675,69.197144 
	C7.001350,65.586662 6.011314,62.175533 5.299427,58.111336 
	C5.712626,55.303635 5.847676,53.148994 5.982726,50.994358 
	C3.974394,34.798866 12.278571,23.459869 23.808651,13.275537 
	C31.076311,8.612781 38.555168,5.300381 47.041019,5.198945 
	C56.049126,5.091266 64.797348,6.332606 73.001045,10.495951 
	C74.999825,11.510324 77.524384,12.076990 79.751297,11.940106 
	C85.755562,11.571038 89.812355,13.997466 88.551506,19.235926 
	C87.095352,25.285847 90.671722,28.007725 93.690903,32.004601 
	C94.613266,30.940674 95.399086,30.034245 96.510956,29.067286 
M84.868698,21.098875 
	C84.868698,21.098875 85.039444,21.022961 85.555069,20.656422 
	C85.605888,20.058680 85.656700,19.460939 85.701584,18.339258 
	C85.633553,17.997120 85.565529,17.654982 85.640236,16.782999 
	C85.375206,16.566757 85.110168,16.350515 84.293434,15.660687 
	C82.392555,16.099731 80.491669,16.538774 77.879868,16.959772 
	C76.695450,16.966127 75.511032,16.972483 73.903839,16.377359 
	C67.185173,12.280457 60.097820,9.321112 51.296066,9.060782 
	C50.516808,9.163606 49.737553,9.266429 48.143684,9.352908 
	C43.421814,10.420087 38.365139,10.747687 34.045429,12.703225 
	C24.011318,17.245678 16.172956,24.565548 12.215010,35.021080 
	C11.071627,38.041504 7.376912,41.065193 9.635310,45.460949 
	C9.549532,46.607952 9.463753,47.754959 9.089142,49.686775 
	C9.143128,50.792961 9.197115,51.899147 9.168856,53.727795 
	C9.288768,54.189922 9.408680,54.652046 9.419775,55.792488 
	C9.582958,56.447144 9.746141,57.101803 9.624216,58.111656 
	C9.584612,58.494576 9.756567,58.702736 10.223385,59.554760 
	C11.269285,67.192261 14.619297,73.654037 20.092651,79.531487 
	C20.392828,79.626640 20.693005,79.721794 21.444122,79.960991 
	C21.444122,79.960991 21.912243,80.031418 22.000660,80.756630 
	C25.316870,83.211227 28.633078,85.665825 32.303284,88.760963 
	C40.564575,92.318031 49.051895,93.935539 58.487583,91.919662 
	C58.662121,91.887924 58.836658,91.856186 59.791515,91.983986 
	C68.838387,90.426117 75.606995,85.011696 82.336502,79.395744 
	C82.876976,78.563843 83.417450,77.731941 84.220863,76.250320 
	C86.561882,71.235855 88.902901,66.221397 91.330872,61.275433 
	C91.330872,61.275433 91.423050,61.214165 91.821083,60.756348 
	C91.797333,60.163303 91.773575,59.570259 91.903397,58.161663 
	C91.854111,53.770935 91.804825,49.380207 91.832764,44.273136 
	C91.566620,43.178123 91.300476,42.083111 91.024185,40.228252 
	C90.039230,38.104198 89.054276,35.980145 88.060036,33.131187 
	C86.690918,30.777651 85.321800,28.424114 84.076050,25.537788 
	C84.079208,25.355509 84.082367,25.173231 84.590820,24.520079 
	C84.692284,23.618683 84.793755,22.717287 84.831657,21.381853 
	C84.831657,21.381853 84.757393,20.948776 84.868698,21.098875 
z"/>
<path fill="#F6F6F6" opacity="1.000000" stroke="none" 
	d="
M12.264406,20.812355 
	C10.991476,19.895065 9.987971,18.788860 8.973019,17.285755 
	C8.961572,14.417975 8.961572,11.947096 8.961572,9.013911 
	C11.542757,9.013911 13.823117,9.013911 16.549950,9.095539 
	C17.539780,10.272234 18.083138,11.367302 18.811813,12.730614 
	C16.842701,15.540384 14.688267,18.081911 12.264406,20.812355 
z"/>
<path fill="#F4F5F5" opacity="1.000000" stroke="none" 
	d="
M27.004215,90.997559 
	C27.827057,91.544876 28.649900,92.092194 29.731724,92.814560 
	C30.301363,94.052208 30.612022,95.114807 30.959034,96.510086 
	C26.462574,96.842758 21.929762,96.842758 16.995358,96.842758 
	C16.995358,94.409081 16.995358,92.174431 17.332840,89.479065 
	C19.498823,89.891083 21.431492,90.600685 23.126278,91.682838 
	C24.791813,92.746300 26.201345,94.100922 27.004215,90.997559 
z"/>
<path fill="#ECF0EE" opacity="1.000000" stroke="none" 
	d="
M26.790195,90.733307 
	C26.201345,94.100922 24.791813,92.746300 23.126278,91.682838 
	C21.431492,90.600685 19.498823,89.891083 17.278187,89.029228 
	C16.886049,89.040108 16.428976,88.995171 16.212694,88.917992 
	C15.450805,86.257599 14.905196,83.674385 14.682721,81.044014 
	C18.862627,84.154259 22.719400,87.311653 26.790195,90.733307 
z"/>
<path fill="#F4F7F5" opacity="1.000000" stroke="none" 
	d="
M90.000000,79.000000 
	C92.020683,79.667061 94.041374,80.334114 96.447495,81.002304 
	C96.832939,83.540405 96.832939,86.077370 96.832939,89.004433 
	C94.427750,89.004433 92.214279,89.004433 89.206696,88.877197 
	C86.940857,88.499039 85.469116,88.248108 83.997383,87.997177 
	C83.997383,87.997185 83.999214,87.498932 84.301987,87.102829 
	C86.403168,84.137810 88.201584,81.568901 90.000000,79.000000 
z"/>
<path fill="#FAFBFA" opacity="1.000000" stroke="none" 
	d="
M83.696548,88.130386 
	C85.469116,88.248108 86.940857,88.499039 88.760216,88.897720 
	C89.107841,91.470840 89.107841,93.896202 89.107841,96.986092 
	C86.603943,96.986092 84.253784,96.986092 81.456612,96.907669 
	C81.431587,93.870026 78.496216,89.975540 83.696548,88.130386 
z"/>
<path fill="#F0F2F1" opacity="1.000000" stroke="none" 
	d="
M90.000000,79.000000 
	C88.201584,81.568901 86.403168,84.137810 84.303139,86.853699 
	C83.531387,86.680389 83.061241,86.360092 82.292358,86.017075 
	C83.463722,84.092812 84.933838,82.191269 86.996750,80.019150 
	C88.393028,79.499046 89.196518,79.249527 90.000000,79.000000 
z"/>
<path fill="#F0F4F3" opacity="1.000000" stroke="none" 
	d="
M5.612664,51.073872 
	C5.847676,53.148994 5.712626,55.303635 5.294078,57.730179 
	C5.087921,55.719189 5.165262,53.436287 5.612664,51.073872 
z"/>
<path fill="#F4F7F5" opacity="1.000000" stroke="none" 
	d="
M89.999977,78.624939 
	C89.196518,79.249527 88.393028,79.499046 87.294479,79.873520 
	C87.761887,78.692284 88.524376,77.386101 89.642975,76.039688 
	C89.999374,76.749611 89.999664,77.499741 89.999977,78.624939 
z"/>
<path fill="#07A044" opacity="1.000000" stroke="none" 
	d="
M91.034340,40.988098 
	C91.300476,42.083111 91.566620,43.178123 91.475517,44.586464 
	C89.712013,44.945316 88.305763,44.990841 86.571846,44.890125 
	C81.857536,40.606255 80.018181,40.753517 73.651993,45.703838 
	C73.535278,45.664963 73.292870,45.707527 73.174004,45.532654 
	C72.861656,45.116337 72.610779,45.009010 72.170998,44.660454 
	C67.691742,40.731255 62.631760,40.983692 59.572506,44.775429 
	C55.499863,41.277584 47.418461,40.945442 42.694168,44.146194 
	C41.953644,44.374474 41.512157,44.449299 41.017155,44.198311 
	C40.618134,43.645367 40.272621,43.418232 39.677917,43.138412 
	C39.267036,43.137627 39.105358,43.189529 38.627064,43.200771 
	C37.801449,43.748306 37.292450,44.336502 36.521049,45.230503 
	C36.318581,47.461838 36.378521,49.387360 36.397362,51.503029 
	C36.356262,51.693176 36.111370,51.995510 35.724483,51.994125 
	C34.203461,52.373428 33.069328,52.754116 31.665691,53.029877 
	C30.929937,52.617134 30.463686,52.309311 29.955986,51.587666 
	C29.861511,49.790352 29.808489,48.406860 29.831001,46.761993 
	C29.855083,46.326683 29.803631,46.152752 29.800215,45.654900 
	C29.803423,44.898151 29.758591,44.465332 29.778957,43.779945 
	C29.552467,43.421192 29.260778,43.315006 28.647285,43.136250 
	C27.893257,43.122261 27.461031,43.180840 26.686810,43.167683 
	C25.881159,43.134617 25.417503,43.173286 24.552402,43.113293 
	C22.786167,43.118755 21.421377,43.222874 19.976059,43.416389 
	C19.704781,43.574177 19.605013,43.710323 19.539173,43.555279 
	C19.006006,43.182724 18.529886,43.169109 17.698618,43.151138 
	C17.237373,43.761322 17.131279,44.375866 16.980862,45.227661 
	C16.936543,45.464916 17.068121,45.929352 17.289680,46.233437 
	C22.605795,47.131973 20.665951,51.008595 20.627806,54.028618 
	C18.190935,53.377827 16.053284,52.556717 13.689672,51.648811 
	C13.594641,52.049904 13.412354,52.819279 13.021427,53.651424 
	C12.812787,53.714195 12.466704,53.978981 12.350267,53.751915 
	C11.823551,53.019295 11.413272,52.513737 10.773688,51.991795 
	C10.544385,51.975410 10.087084,51.928497 10.076620,51.508575 
	C10.047722,50.237949 10.029286,49.387245 10.072706,48.261227 
	C10.153689,47.008335 10.172818,46.030754 10.191946,45.053177 
	C7.376912,41.065193 11.071627,38.041504 12.215010,35.021080 
	C16.172956,24.565548 24.011318,17.245678 34.045429,12.703225 
	C38.365139,10.747687 43.421814,10.420087 48.764793,9.562967 
	C50.276951,9.614438 51.167999,9.455850 52.059044,9.297260 
	C60.097820,9.321112 67.185173,12.280457 74.088005,17.059238 
	C75.851578,20.359735 77.430977,22.978355 79.396576,25.755329 
	C81.172745,25.965982 82.562714,26.018280 83.952690,26.070576 
	C85.321800,28.424114 86.690918,30.777651 88.042923,33.904106 
	C89.028656,36.780716 90.031502,38.884407 91.034340,40.988098 
z"/>
<path fill="#07A044" opacity="1.000000" stroke="none" 
	d="
M20.147856,79.004166 
	C14.619297,73.654037 11.269285,67.192261 10.206099,58.841805 
	C10.124671,57.936104 10.060531,57.743362 10.228192,57.411705 
	C11.262136,56.864048 12.064280,56.455311 13.108318,56.074188 
	C13.350215,56.101807 13.833700,56.147655 13.978678,56.468643 
	C16.395748,57.418282 18.667843,58.046928 21.212011,58.800224 
	C21.680389,58.960274 21.876694,58.995674 22.452267,59.024933 
	C23.458103,58.420609 24.084667,57.822422 24.665607,56.997616 
	C24.695387,56.449459 24.879892,56.213165 25.415051,56.186462 
	C26.151621,56.522041 26.646637,56.733269 27.519192,56.968380 
	C31.818790,59.188915 35.679230,60.637009 39.273495,55.985886 
	C39.502110,55.897221 39.911003,55.626457 40.182446,55.701340 
	C40.620834,55.862057 40.787781,55.947895 41.003910,56.323692 
	C41.409855,57.042110 41.766617,57.470566 42.189926,58.190205 
	C42.865791,58.342564 43.475113,58.203739 44.280567,57.866745 
	C44.980797,57.436672 45.484898,57.204769 46.147438,57.225037 
	C47.064304,57.671398 47.822727,57.865589 48.848751,58.161366 
	C49.307167,58.264328 49.497986,58.265709 49.722572,58.299767 
	C49.756348,58.332447 49.829498,58.391460 49.980633,58.587479 
	C50.366253,58.484104 50.600735,58.184708 50.989456,57.607998 
	C51.815838,56.902512 52.487976,56.474331 53.398758,56.156868 
	C54.101009,56.509178 54.564617,56.750771 55.218346,57.034389 
	C55.408463,57.076420 55.793583,57.134129 55.952515,57.393761 
	C56.295956,57.737923 56.480461,57.822449 56.818401,58.133362 
	C58.311214,58.328175 59.650589,58.296600 61.074532,58.452320 
	C61.617626,58.561295 62.076160,58.482967 62.650265,58.143143 
	C62.587837,57.813496 62.409836,57.745346 62.459381,58.011314 
	C67.828667,59.246433 67.874153,59.225109 67.427925,56.085720 
	C67.401352,56.060741 67.355278,56.117348 67.306366,56.664509 
	C68.860237,57.267342 70.463013,57.323009 72.160828,57.747208 
	C74.068535,58.296410 75.881195,58.477085 78.052399,58.629387 
	C80.280273,58.419750 82.149612,58.238483 84.277924,58.327637 
	C86.772568,59.467686 89.008247,60.337311 91.243927,61.206940 
	C88.902901,66.221397 86.561882,71.235855 83.811562,76.671547 
	C82.920654,77.691658 82.439049,78.290550 81.957451,78.889435 
	C75.606995,85.011696 68.838387,90.426117 59.311661,91.746140 
	C58.548542,91.590019 58.265270,91.671738 57.982002,91.753456 
	C49.051895,93.935539 40.564575,92.318031 32.145058,88.161209 
	C31.991831,87.374763 31.996832,87.188080 32.140541,86.947845 
	C32.185703,86.928909 32.092152,86.963539 31.727062,86.806496 
	C28.902048,83.510567 26.998333,79.464409 21.912243,80.031418 
	C21.912243,80.031418 21.444122,79.960991 21.121080,79.712875 
	C20.625450,79.248917 20.408724,79.095390 20.147856,79.004166 
M67.504913,71.983696 
	C67.504913,71.983696 67.010536,72.028397 66.928932,71.370667 
	C65.967110,71.499863 65.005280,71.629059 63.270542,71.674568 
	C59.128689,71.697617 54.986832,71.720665 50.267471,71.853363 
	C49.877323,71.853439 49.487175,71.853523 48.662643,71.272537 
	C46.783039,71.479057 44.903431,71.685577 42.727024,71.372215 
	C42.149345,71.291588 41.571663,71.210968 40.343346,71.174141 
	C39.553047,71.494606 38.762745,71.815071 37.243790,72.021706 
	C36.510303,72.064011 35.776814,72.106323 34.186775,72.037308 
	C32.463127,72.057579 30.739475,72.077850 28.376312,72.288513 
	C27.161386,76.988754 27.522863,77.321007 33.836258,76.796432 
	C34.549381,76.910065 35.262501,77.023697 36.351219,77.742638 
	C37.897858,77.437851 39.444496,77.133072 41.570618,76.803551 
	C42.058216,76.513763 42.545815,76.223976 43.017319,75.979919 
	C43.017319,75.979919 43.063560,75.968903 43.164810,76.454910 
	C43.164810,76.454910 43.533844,76.785866 43.533844,76.785866 
	C43.533844,76.785866 44.021740,76.698273 44.654827,76.835617 
	C45.084789,76.821854 45.514748,76.808098 46.753052,76.978607 
	C47.843334,76.873436 48.933620,76.768265 50.699512,77.098930 
	C56.454197,76.965172 62.208878,76.831421 68.767464,76.902206 
	C70.532585,76.606026 72.297714,76.309845 74.559944,75.670937 
	C74.650246,75.098000 74.740540,74.525070 74.927063,73.220970 
	C74.892471,72.486244 74.857887,71.751518 74.816841,70.531250 
	C74.632027,70.185432 74.354904,70.078339 73.344025,70.153877 
	C72.237358,70.720856 71.130684,71.287834 69.340591,71.746490 
	C68.894035,71.832161 68.447472,71.917831 67.504913,71.983696 
z"/>
<path fill="#149B4B" opacity="1.000000" stroke="none" 
	d="
M91.287399,61.241188 
	C89.008247,60.337311 86.772568,59.467686 84.206139,58.247581 
	C83.875381,57.897102 83.927696,57.688438 84.179718,57.745922 
	C84.658455,57.554989 84.885162,57.306576 85.350128,56.976986 
	C85.671677,56.600483 85.754982,56.305161 85.947136,55.737015 
	C86.396568,54.996105 86.737152,54.528019 87.415817,53.894791 
	C90.626099,50.521606 88.460892,47.808659 86.899506,45.036362 
	C88.305763,44.990841 89.712013,44.945316 91.436905,44.944633 
	C91.804825,49.380207 91.854111,53.770935 91.606720,58.792770 
	C91.347710,60.020641 91.385384,60.617405 91.423050,61.214165 
	C91.423050,61.214165 91.330872,61.275433 91.287399,61.241188 
z"/>
<path fill="#E7FFE8" opacity="1.000000" stroke="none" 
	d="
M79.010376,25.596973 
	C77.430977,22.978355 75.851578,20.359735 74.299393,17.359978 
	C75.511032,16.972483 76.695450,16.966127 78.176201,17.356300 
	C78.559914,18.523806 78.647301,19.294779 78.691116,20.396267 
	C78.726387,21.164211 78.805222,21.601641 78.735741,22.189068 
	C79.034241,22.576309 79.481049,22.813549 80.288834,23.085258 
	C81.533157,22.849594 82.416496,22.579462 83.527222,22.225250 
	C83.754601,22.141171 84.042374,21.750965 84.251801,21.816971 
	C84.461220,21.882978 84.895226,21.815891 84.895226,21.815891 
	C84.793755,22.717287 84.692284,23.618683 83.957520,24.762085 
	C81.886276,25.201717 80.448326,25.399345 79.010376,25.596973 
z"/>
<path fill="#149B4F" opacity="1.000000" stroke="none" 
	d="
M32.001831,87.001404 
	C31.996832,87.188080 31.991831,87.374763 31.968058,87.840942 
	C28.633078,85.665825 25.316870,83.211227 21.956451,80.394028 
	C26.998333,79.464409 28.902048,83.510567 31.727764,86.807411 
	C32.000000,87.000000 32.001831,87.001404 32.001831,87.001404 
z"/>
<path fill="#87BE06" opacity="1.000000" stroke="none" 
	d="
M78.734680,20.065754 
	C78.647301,19.294779 78.559914,18.523806 78.531662,17.365326 
	C80.491669,16.538774 82.392555,16.099731 84.490829,16.111416 
	C84.688217,16.562143 84.590050,17.007484 84.414566,17.297733 
	C84.167564,18.717495 84.096039,19.847008 84.013382,20.987310 
	C84.002243,20.998102 83.982208,21.019888 83.600708,20.996521 
	C81.724358,20.670685 80.229523,20.368219 78.734680,20.065754 
z"/>
<path fill="#149B4B" opacity="1.000000" stroke="none" 
	d="
M91.029266,40.608177 
	C90.031502,38.884407 89.028656,36.780716 88.047562,34.266560 
	C89.054276,35.980145 90.039230,38.104198 91.029266,40.608177 
z"/>
<path fill="#17994A" opacity="1.000000" stroke="none" 
	d="
M12.866423,56.046570 
	C12.064280,56.455311 11.262136,56.864048 10.177025,57.450729 
	C9.894054,57.628674 9.909326,57.756458 9.909326,57.756458 
	C9.746141,57.101803 9.582958,56.447144 9.739152,55.395348 
	C10.325156,54.370888 10.591784,53.743572 10.906082,52.840740 
	C10.970166,52.379543 10.986579,52.193859 11.002992,52.008179 
	C11.413272,52.513737 11.823551,53.019295 12.479427,54.082615 
	C12.772157,55.109108 12.819289,55.577839 12.866423,56.046570 
z"/>
<path fill="#8EB721" opacity="1.000000" stroke="none" 
	d="
M84.024513,20.976519 
	C84.096039,19.847008 84.167564,18.717495 84.639023,17.382711 
	C85.038971,17.177439 85.497498,17.312843 85.497498,17.312843 
	C85.565529,17.654982 85.633553,17.997120 85.507401,18.820454 
	C85.221962,19.875420 85.130707,20.449190 85.039444,21.022961 
	C85.039444,21.022961 84.868698,21.098875 84.630890,21.054350 
	C84.393089,21.009825 84.024513,20.976519 84.024513,20.976519 
z"/>
<path fill="#17994A" opacity="1.000000" stroke="none" 
	d="
M9.913629,45.257065 
	C10.172818,46.030754 10.153689,47.008335 9.921244,48.365509 
	C9.707925,48.745102 9.377975,48.901962 9.377975,48.901962 
	C9.463753,47.754959 9.549532,46.607952 9.913629,45.257065 
z"/>
<path fill="#F4F7F5" opacity="1.000000" stroke="none" 
	d="
M82.146973,79.142593 
	C82.439049,78.290550 82.920654,77.691658 83.680084,76.996407 
	C83.417450,77.731941 82.876976,78.563843 82.146973,79.142593 
z"/>
<path fill="#B5F4C6" opacity="1.000000" stroke="none" 
	d="
M79.396576,25.755329 
	C80.448326,25.399345 81.886276,25.201717 83.704880,24.997520 
	C84.082367,25.173231 84.079208,25.355509 84.014374,25.804184 
	C82.562714,26.018280 81.172745,25.965982 79.396576,25.755329 
z"/>
<path fill="#42B07B" opacity="1.000000" stroke="none" 
	d="
M9.233559,49.294369 
	C9.377975,48.901962 9.707925,48.745102 9.859388,48.640823 
	C10.029286,49.387245 10.047722,50.237949 10.043976,51.775902 
	C10.017612,52.642128 10.013430,52.821106 9.819713,53.001656 
	C9.630178,53.003227 9.251101,53.005333 9.251101,53.005333 
	C9.197115,51.899147 9.143128,50.792961 9.233559,49.294369 
z"/>
<path fill="#46B073" opacity="1.000000" stroke="none" 
	d="
M9.209978,53.366562 
	C9.251101,53.005333 9.630178,53.003227 10.032323,53.028015 
	C10.434467,53.052799 10.858410,53.116253 10.858411,53.116253 
	C10.591784,53.743572 10.325156,54.370888 9.793560,55.056190 
	C9.408680,54.652046 9.288768,54.189922 9.209978,53.366562 
z"/>
<path fill="#51A770" opacity="1.000000" stroke="none" 
	d="
M51.677555,9.179022 
	C51.167999,9.455850 50.276951,9.614438 49.172100,9.571138 
	C49.737553,9.266429 50.516808,9.163606 51.677555,9.179022 
z"/>
<path fill="#C7E287" opacity="1.000000" stroke="none" 
	d="
M85.297256,20.839691 
	C85.130707,20.449190 85.221962,19.875420 85.510368,19.082424 
	C85.656700,19.460939 85.605888,20.058680 85.297256,20.839691 
z"/>
<path fill="#47AC7B" opacity="1.000000" stroke="none" 
	d="
M91.622070,60.985256 
	C91.385384,60.617405 91.347710,60.020641 91.529930,59.200546 
	C91.773575,59.570259 91.797333,60.163303 91.622070,60.985256 
z"/>
<path fill="#30A865" opacity="1.000000" stroke="none" 
	d="
M58.234795,91.836563 
	C58.265270,91.671738 58.548542,91.590019 58.921501,91.666367 
	C58.836658,91.856186 58.662121,91.887924 58.234795,91.836563 
z"/>
<path fill="#87BE06" opacity="1.000000" stroke="none" 
	d="
M84.013382,20.987310 
	C84.024513,20.976519 84.393089,21.009825 84.575241,20.979301 
	C84.757393,20.948776 84.831657,21.381853 84.863441,21.598873 
	C84.895226,21.815891 84.461220,21.882978 84.257858,21.632740 
	C84.054497,21.382502 83.982208,21.019888 83.982208,21.019888 
	C83.982208,21.019888 84.002243,20.998102 84.013382,20.987310 
z"/>
<path fill="#149B4F" opacity="1.000000" stroke="none" 
	d="
M20.120255,79.267822 
	C20.408724,79.095390 20.625450,79.248917 20.895611,79.640846 
	C20.693005,79.721794 20.392828,79.626640 20.120255,79.267822 
z"/>
<path fill="#C7E287" opacity="1.000000" stroke="none" 
	d="
M85.568863,17.047920 
	C85.497498,17.312843 85.038971,17.177439 84.814514,17.092461 
	C84.590050,17.007484 84.688217,16.562143 84.766678,16.348209 
	C85.110168,16.350515 85.375206,16.566757 85.568863,17.047920 
z"/>
<path fill="#46B073" opacity="1.000000" stroke="none" 
	d="
M9.766771,57.934059 
	C9.909326,57.756458 9.894054,57.628674 9.945223,57.589645 
	C10.060531,57.743362 10.124671,57.936104 10.164446,58.432491 
	C9.756567,58.702736 9.584612,58.494576 9.766771,57.934059 
z"/>
<path fill="#E0FDEE" opacity="1.000000" stroke="none" 
	d="
M86.571846,44.890125 
	C88.460892,47.808659 90.626099,50.521606 86.956207,53.645386 
	C85.852310,53.394520 85.546104,53.227913 85.420486,53.106194 
	C85.320404,52.778511 85.039734,52.405941 84.927887,51.695446 
	C84.751320,50.528793 84.405922,49.700062 83.894684,48.554276 
	C81.822746,48.163956 79.916641,48.090691 77.663635,48.155708 
	C77.560966,49.785515 77.805199,51.277046 78.257591,52.854156 
	C78.465759,52.939732 78.905418,53.036369 79.089111,53.373672 
	C80.525551,53.699848 81.778313,53.688728 83.018478,53.784203 
	C83.005882,53.890797 82.967834,54.102077 83.027512,54.426872 
	C84.004227,55.171059 84.921249,55.590446 85.838280,56.009834 
	C85.754982,56.305161 85.671677,56.600483 85.114609,56.996246 
	C84.324905,57.199642 84.087181,57.396896 83.927696,57.688438 
	C83.927696,57.688438 83.875381,57.897102 83.947159,57.977158 
	C82.149612,58.238483 80.280273,58.419750 77.907150,58.356804 
	C76.539368,57.255398 75.675385,56.398209 74.858299,55.127617 
	C74.263893,53.472473 73.622581,52.230721 72.997803,50.602524 
	C73.265778,48.724957 73.517242,47.233837 73.768707,45.742714 
	C80.018181,40.753517 81.857536,40.606255 86.571846,44.890125 
z"/>
<path fill="#E4FEF2" opacity="1.000000" stroke="none" 
	d="
M72.981277,50.988968 
	C73.622581,52.230721 74.263893,53.472473 74.591217,55.106304 
	C73.921738,55.469925 73.566254,55.441463 72.943008,55.351608 
	C72.543785,55.588684 72.412338,55.887161 72.192390,56.477638 
	C72.091194,56.972652 72.078499,57.175663 72.065796,57.378677 
	C70.463013,57.323009 68.860237,57.267342 67.667442,56.530823 
	C68.327644,55.186943 68.577858,54.523903 68.673813,53.558971 
	C67.074860,53.452957 65.630165,53.648842 64.116699,54.160294 
	C64.359032,55.007690 64.670143,55.539513 64.707397,56.359322 
	C63.699631,56.990601 62.965733,57.333897 62.231834,57.677193 
	C62.409836,57.745346 62.587837,57.813496 62.336243,57.696045 
	C61.596130,57.328476 61.285614,57.146503 60.987255,56.982506 
	C60.999413,57.000477 61.022427,57.037266 61.018761,56.583126 
	C61.071236,53.418114 61.127384,50.707241 61.574242,47.997486 
	C63.006771,47.987923 64.048592,47.977242 65.449188,48.008202 
	C66.472557,47.780136 67.137154,47.510429 67.801750,47.240723 
	C66.915512,46.845669 66.029282,46.450611 64.865311,45.886974 
	C63.088112,45.506920 61.588650,45.295448 60.042877,45.036110 
	C59.996563,44.988251 59.906143,44.890434 59.906143,44.890434 
	C62.631760,40.983692 67.691742,40.731255 72.063461,44.582169 
	C72.087425,44.879230 71.834053,44.961113 71.646240,45.131672 
	C71.584641,45.871994 71.710846,46.441757 71.833817,47.355354 
	C71.545929,48.803493 71.261276,49.907795 70.748024,51.204361 
	C70.754158,51.879410 70.988899,52.362190 71.223648,52.844967 
	C71.812416,52.223640 72.401176,51.602314 72.994995,50.988205 
	C73.000046,50.995422 72.981277,50.988968 72.981277,50.988968 
z"/>
<path fill="#E4FEF2" opacity="1.000000" stroke="none" 
	d="
M42.993206,43.992737 
	C47.418461,40.945442 55.499863,41.277584 59.572506,44.775429 
	C59.906143,44.890434 59.996563,44.988251 60.016197,45.374657 
	C60.038609,46.214382 60.041378,46.667706 60.030197,47.508308 
	C59.972580,48.930500 59.928913,49.965412 59.489849,51.000202 
	C57.776516,51.000099 56.458576,51.000118 55.069618,50.644077 
	C54.774189,49.583233 54.549778,48.878452 54.325363,48.173668 
	C53.824192,48.448315 53.323021,48.722954 52.435768,48.998329 
	C51.020107,48.999519 49.990528,48.999973 48.811981,48.780052 
	C48.422264,48.096413 48.181519,47.633156 47.904812,46.802696 
	C46.243637,45.621239 44.618420,44.806988 42.993206,43.992737 
z"/>
<path fill="#E4FEF3" opacity="1.000000" stroke="none" 
	d="
M42.694168,44.146194 
	C44.618420,44.806988 46.243637,45.621239 47.488136,46.770424 
	C46.734612,50.394531 46.361801,53.683697 45.988991,56.972866 
	C45.484898,57.204769 44.980797,57.436672 43.958321,57.788223 
	C43.001083,57.904919 42.562233,57.901966 42.123379,57.899017 
	C41.766617,57.470566 41.409855,57.042110 41.071495,55.870270 
	C41.083488,51.592625 41.077080,48.058376 41.070667,44.524124 
	C41.512157,44.449299 41.953644,44.374474 42.694168,44.146194 
z"/>
<path fill="#D7FEE5" opacity="1.000000" stroke="none" 
	d="
M39.044880,56.074547 
	C35.679230,60.637009 31.818790,59.188915 27.506599,56.598682 
	C27.062950,55.476215 27.009430,54.747334 27.278183,53.979111 
	C28.399450,53.293678 29.198442,52.647583 29.997437,52.001488 
	C30.463686,52.309311 30.929937,52.617134 31.837154,53.327782 
	C33.555866,53.152245 34.833618,52.573875 36.111370,51.995506 
	C36.111370,51.995510 36.356262,51.693176 36.664722,51.446594 
	C37.145309,51.139385 37.317436,51.078762 37.640484,51.225544 
	C38.191658,51.951084 38.591904,52.469215 38.997990,53.250980 
	C39.010048,53.690205 39.016273,53.865795 39.007145,54.380867 
	C39.009487,55.171749 39.027184,55.623146 39.044880,56.074547 
z"/>
<path fill="#DEFDEF" opacity="1.000000" stroke="none" 
	d="
M20.939936,58.675571 
	C18.667843,58.046928 16.395748,57.418282 14.031455,56.014858 
	C13.702859,54.689606 13.466463,54.139130 13.230067,53.588654 
	C13.412354,52.819279 13.594641,52.049904 13.689672,51.648811 
	C16.053284,52.556717 18.190935,53.377827 20.910416,54.029068 
	C21.721024,53.569202 21.949802,53.279198 22.395004,52.798691 
	C22.766918,52.055946 22.922411,51.503712 23.389450,50.960876 
	C24.115244,50.953964 24.529491,50.937645 24.957657,50.938988 
	C24.971575,50.956654 24.995653,50.994648 25.012022,51.269005 
	C25.055529,51.724522 25.082668,51.905689 25.089268,52.446342 
	C25.111790,53.282246 25.154854,53.758656 25.175671,54.539505 
	C25.160114,55.250000 25.166805,55.656055 25.173496,56.062111 
	C24.879892,56.213165 24.695387,56.449459 24.334986,57.059116 
	C23.428358,57.605537 22.806728,57.863834 21.936590,58.093994 
	C21.330133,58.135910 21.080751,58.339149 20.939936,58.675571 
z"/>
<path fill="#E6FEEF" opacity="1.000000" stroke="none" 
	d="
M29.955986,51.587666 
	C29.198442,52.647583 28.399450,53.293678 27.056080,53.961254 
	C26.511700,53.982738 26.110920,53.787792 26.144800,53.477249 
	C26.136196,52.752159 26.093714,52.337608 25.941393,51.702141 
	C25.620628,51.202766 25.341993,51.040577 24.995653,50.994648 
	C24.995653,50.994648 24.971575,50.956654 24.973270,50.712444 
	C24.974968,50.468235 24.996553,50.012970 25.370689,49.939888 
	C26.172819,47.657673 26.600813,45.448547 27.028807,43.239418 
	C27.461031,43.180840 27.893257,43.122261 28.714878,43.319229 
	C29.240776,43.816113 29.443937,43.968689 29.713760,44.032509 
	C29.758591,44.465332 29.803423,44.898151 29.654961,45.754246 
	C29.559601,46.459469 29.657534,46.741417 29.755465,47.023369 
	C29.808489,48.406860 29.861511,49.790352 29.955986,51.587666 
z"/>
<path fill="#E5FFF8" opacity="1.000000" stroke="none" 
	d="
M38.992149,52.987347 
	C38.591904,52.469215 38.191658,51.951084 37.539085,50.873222 
	C37.288158,49.581654 37.289555,48.849823 37.424408,47.988541 
	C37.598072,47.742165 37.699814,47.602192 37.666363,47.512836 
	C37.583179,47.290646 37.438374,47.091515 37.285423,46.540718 
	C37.096172,45.773769 36.939812,45.349232 36.783455,44.924694 
	C37.292450,44.336502 37.801449,43.748306 38.635170,43.492149 
	C38.978477,44.212452 38.997059,44.600712 39.008820,45.434021 
	C38.998718,48.248489 38.995434,50.617920 38.992149,52.987347 
z"/>
<path fill="#CBE3D1" opacity="1.000000" stroke="none" 
	d="
M26.686810,43.167683 
	C26.600813,45.448547 26.172819,47.657673 25.376770,49.512501 
	C24.958509,47.457691 24.908306,45.757179 24.882610,43.845558 
	C24.907118,43.634441 24.953850,43.211952 24.953850,43.211952 
	C25.417503,43.173286 25.881159,43.134617 26.686810,43.167683 
z"/>
<path fill="#87C0AA" opacity="1.000000" stroke="none" 
	d="
M41.017155,44.198311 
	C41.077080,48.058376 41.083488,51.592625 41.022316,55.580303 
	C40.787781,55.947895 40.620834,55.862057 40.171406,55.406723 
	C39.855801,54.644962 39.822678,54.252708 39.864105,53.427956 
	C39.915035,50.341862 39.891415,47.688271 39.901398,44.728325 
	C39.932369,44.011681 39.929741,43.601391 39.927113,43.191097 
	C40.272621,43.418232 40.618134,43.645367 41.017155,44.198311 
z"/>
<path fill="#46A571" opacity="1.000000" stroke="none" 
	d="
M22.178581,52.989193 
	C21.949802,53.279198 21.721024,53.569202 21.209635,53.858749 
	C20.665951,51.008595 22.605795,47.131973 17.688946,46.239910 
	C19.202826,45.996941 20.538998,46.051579 21.978144,46.321587 
	C22.081116,46.536953 22.267117,46.976669 22.176575,47.399330 
	C22.116884,49.544395 22.147732,51.266792 22.178581,52.989193 
z"/>
<path fill="#8AC9AE" opacity="1.000000" stroke="none" 
	d="
M70.976624,51.012093 
	C71.261276,49.907795 71.545929,48.803493 71.913300,47.086678 
	C72.043144,46.293507 72.090271,46.112858 72.433380,45.912666 
	C72.917206,45.831261 73.105042,45.769394 73.292870,45.707527 
	C73.292870,45.707527 73.535278,45.664963 73.651993,45.703838 
	C73.517242,47.233837 73.265778,48.724957 72.997803,50.602524 
	C72.981277,50.988968 73.000046,50.995422 72.660309,51.020931 
	C71.872589,51.034992 71.424606,51.023540 70.976624,51.012093 
z"/>
<path fill="#17954D" opacity="1.000000" stroke="none" 
	d="
M35.724483,51.994125 
	C34.833618,52.573875 33.555866,53.152245 32.106655,53.432709 
	C33.069328,52.754116 34.203461,52.373428 35.724483,51.994125 
z"/>
<path fill="#E4FEEF" opacity="1.000000" stroke="none" 
	d="
M24.552402,43.113293 
	C24.953850,43.211952 24.907118,43.634441 24.570984,43.854630 
	C23.456566,44.395275 22.678282,44.715733 21.676394,45.029930 
	C21.452789,45.023670 21.007191,44.983749 20.841726,44.528145 
	C20.469706,43.824024 20.263147,43.575512 20.056589,43.326996 
	C21.421377,43.222874 22.786167,43.118755 24.552402,43.113293 
z"/>
<path fill="#65CF8D" opacity="1.000000" stroke="none" 
	d="
M36.521049,45.230503 
	C36.939812,45.349232 37.096172,45.773769 37.205177,46.848076 
	C37.202206,47.704563 37.246578,47.911274 37.290955,48.117989 
	C37.289555,48.849823 37.288158,49.581654 37.388161,50.665810 
	C37.317436,51.078762 37.145309,51.139385 36.705822,51.256447 
	C36.378521,49.387360 36.318581,47.461838 36.521049,45.230503 
z"/>
<path fill="#A3ECC3" opacity="1.000000" stroke="none" 
	d="
M21.007191,44.983749 
	C21.007191,44.983749 21.452789,45.023670 21.692257,45.297798 
	C21.912876,45.750023 21.894024,45.928116 21.875172,46.106216 
	C20.538998,46.051579 19.202826,45.996941 17.467386,45.935829 
	C17.068121,45.929352 16.936543,45.464916 17.378910,45.220913 
	C18.883249,44.979191 19.945219,44.981468 21.007191,44.983749 
z"/>
<path fill="#C9FADC" opacity="1.000000" stroke="none" 
	d="
M20.841726,44.528145 
	C19.945219,44.981468 18.883249,44.979191 17.423229,44.983658 
	C17.131279,44.375866 17.237373,43.761322 17.900400,43.370972 
	C18.836964,43.701515 19.216593,43.807869 19.596224,43.914223 
	C19.605013,43.710323 19.704781,43.574177 19.976059,43.416389 
	C20.263147,43.575512 20.469706,43.824024 20.841726,44.528145 
z"/>
<path fill="#80CD9D" opacity="1.000000" stroke="none" 
	d="
M13.021427,53.651424 
	C13.466463,54.139130 13.702859,54.689606 13.886477,55.693871 
	C13.833700,56.147655 13.350215,56.101807 13.108318,56.074188 
	C12.819289,55.577839 12.772157,55.109108 12.595864,54.309677 
	C12.466704,53.978981 12.812787,53.714195 13.021427,53.651424 
z"/>
<path fill="#BDFBD4" opacity="1.000000" stroke="none" 
	d="
M39.677917,43.138412 
	C39.929741,43.601391 39.932369,44.011681 39.688911,44.713326 
	C39.442829,45.004677 39.015636,44.988976 39.015640,44.988976 
	C38.997059,44.600712 38.978477,44.212452 38.951790,43.532806 
	C39.105358,43.189529 39.267036,43.137627 39.677917,43.138412 
z"/>
<path fill="#B8F5D0" opacity="1.000000" stroke="none" 
	d="
M29.831001,46.761993 
	C29.657534,46.741417 29.559601,46.459469 29.606922,46.078171 
	C29.803631,46.152752 29.855083,46.326683 29.831001,46.761993 
z"/>
<path fill="#27A760" opacity="1.000000" stroke="none" 
	d="
M10.906081,52.840740 
	C10.858410,53.116253 10.434467,53.052799 10.221857,53.026443 
	C10.013430,52.821106 10.017612,52.642128 10.054440,52.195824 
	C10.087084,51.928497 10.544385,51.975410 10.773688,51.991795 
	C10.986579,52.193859 10.970166,52.379543 10.906081,52.840740 
z"/>
<path fill="#63B190" opacity="1.000000" stroke="none" 
	d="
M73.174004,45.532654 
	C73.105042,45.769394 72.917206,45.831261 72.367554,45.666790 
	C71.948517,45.280674 71.891289,45.120892 71.834053,44.961113 
	C71.834053,44.961113 72.087425,44.879230 72.194962,44.957516 
	C72.610779,45.009010 72.861656,45.116337 73.174004,45.532654 
z"/>
<path fill="#E4FEEF" opacity="1.000000" stroke="none" 
	d="
M19.539173,43.555279 
	C19.216593,43.807869 18.836964,43.701515 18.255550,43.375328 
	C18.529886,43.169109 19.006006,43.182724 19.539173,43.555279 
z"/>
<path fill="#B8F5D0" opacity="1.000000" stroke="none" 
	d="
M29.778957,43.779945 
	C29.443937,43.968689 29.240776,43.816113 29.036682,43.391800 
	C29.260778,43.315006 29.552467,43.421192 29.778957,43.779945 
z"/>
<path fill="#96EBC1" opacity="1.000000" stroke="none" 
	d="
M67.963562,76.697670 
	C62.208878,76.831421 56.454197,76.965172 50.361687,76.641785 
	C50.025455,75.862877 50.036526,75.541443 50.036572,74.915756 
	C49.989529,74.410851 49.962982,74.210526 50.212189,73.827621 
	C50.606960,73.011269 50.725971,72.377487 50.844978,71.743713 
	C54.986832,71.720665 59.128689,71.697617 63.698128,72.009552 
	C64.178375,72.534424 64.231033,72.724304 64.231796,73.263016 
	C65.109818,74.074135 66.039726,74.536407 67.184311,75.073387 
	C67.662239,75.309563 67.870163,75.524551 68.004982,76.019012 
	C67.987221,76.244972 67.963562,76.697670 67.963562,76.697670 
z"/>
<path fill="#E4FEF3" opacity="1.000000" stroke="none" 
	d="
M55.140640,51.000137 
	C56.458576,51.000118 57.776516,51.000099 59.537209,51.404968 
	C60.327454,53.552330 60.674938,55.294796 61.022427,57.037266 
	C61.022427,57.037266 60.999413,57.000477 60.995087,57.307701 
	C60.990494,57.831627 60.990227,58.048325 60.989964,58.265022 
	C59.650589,58.296600 58.311214,58.328175 56.870735,57.946442 
	C56.444279,57.400131 56.118931,57.267132 55.793583,57.134129 
	C55.793583,57.134129 55.408463,57.076420 55.200367,56.606010 
	C55.041729,54.423779 55.091187,52.711960 55.140640,51.000137 
z"/>
<path fill="#E4FEF3" opacity="1.000000" stroke="none" 
	d="
M48.960945,49.000431 
	C49.990528,48.999973 51.020107,48.999519 52.506550,49.434166 
	C53.028976,51.928234 53.094547,53.987194 53.160114,56.046158 
	C52.487976,56.474331 51.815838,56.902512 50.712120,57.683125 
	C50.130188,58.154198 49.979843,58.272831 49.829498,58.391460 
	C49.829498,58.391460 49.756348,58.332447 49.782482,58.021324 
	C49.526451,57.479961 49.244286,57.249722 48.873695,56.580624 
	C48.843830,53.761322 48.902386,51.380878 48.960945,49.000431 
z"/>
<path fill="#279E58" opacity="1.000000" stroke="none" 
	d="
M48.811977,48.780052 
	C48.902386,51.380878 48.843830,53.761322 48.783691,56.842640 
	C48.715122,57.715603 48.648136,57.887691 48.581150,58.059784 
	C47.822727,57.865589 47.064304,57.671398 46.147438,57.225037 
	C46.361801,53.683697 46.734612,50.394531 47.524097,47.137630 
	C48.181519,47.633156 48.422264,48.096413 48.811977,48.780052 
z"/>
<path fill="#94E5B9" opacity="1.000000" stroke="none" 
	d="
M37.972443,72.135529 
	C38.762745,71.815071 39.553047,71.494606 40.670933,71.559326 
	C40.996059,73.572433 40.993595,75.200363 40.991135,76.828285 
	C39.444496,77.133072 37.897858,77.437851 36.182281,77.086517 
	C36.669197,75.290306 37.325054,74.150215 37.987221,72.791245 
	C37.993526,72.572365 37.972443,72.135529 37.972443,72.135529 
z"/>
<path fill="#209E56" opacity="1.000000" stroke="none" 
	d="
M53.398758,56.156872 
	C53.094547,53.987194 53.028976,51.928234 52.892632,49.433434 
	C53.323021,48.722954 53.824192,48.448315 54.325363,48.173668 
	C54.549778,48.878452 54.774189,49.583233 55.069618,50.644077 
	C55.091187,52.711960 55.041729,54.423779 55.010250,56.563980 
	C54.564617,56.750771 54.101009,56.509178 53.398758,56.156872 
z"/>
<path fill="#1E9859" opacity="1.000000" stroke="none" 
	d="
M72.160828,57.747208 
	C72.078499,57.175663 72.091194,56.972652 72.397461,56.417831 
	C72.963768,55.927525 73.137016,55.709850 73.210770,55.413002 
	C73.566254,55.441463 73.921738,55.469925 74.544312,55.519699 
	C75.675385,56.398209 76.539368,57.255398 77.548615,58.385174 
	C75.881195,58.477085 74.068535,58.296410 72.160828,57.747208 
z"/>
<path fill="#90E9B2" opacity="1.000000" stroke="none" 
	d="
M74.823296,71.016792 
	C74.857887,71.751518 74.892471,72.486244 74.496292,73.602310 
	C73.289948,74.008957 72.514366,74.034271 71.449997,74.032166 
	C70.774445,74.001114 70.387688,73.997505 69.993271,73.756973 
	C69.985603,73.520042 69.973213,73.045944 69.986069,72.748169 
	C70.007286,72.251862 70.015648,72.053337 70.024017,71.854820 
	C71.130684,71.287834 72.237358,70.720856 73.767365,70.351112 
	C74.363640,70.755707 74.574509,70.911850 74.823296,71.016792 
z"/>
<path fill="#85E5AF" opacity="1.000000" stroke="none" 
	d="
M33.127941,76.656036 
	C27.522863,77.321007 27.161386,76.988754 28.720308,72.484619 
	C29.394760,73.127480 29.725218,73.574249 30.192432,74.330147 
	C31.202335,74.746544 32.075481,74.853806 33.023064,75.237724 
	C33.107651,75.894928 33.117794,76.275482 33.127941,76.656036 
z"/>
<path fill="#CAF7DB" opacity="1.000000" stroke="none" 
	d="
M33.482101,76.726234 
	C33.117794,76.275482 33.107651,75.894928 33.010353,74.999680 
	C32.923195,74.484985 32.865936,74.011612 33.141899,73.908997 
	C33.936573,73.529625 34.455284,73.252869 35.351078,72.985481 
	C36.479080,72.999947 37.230000,73.005035 37.980911,73.010132 
	C37.325054,74.150215 36.669197,75.290306 35.994484,76.783859 
	C35.262501,77.023697 34.549381,76.910065 33.482101,76.726234 
z"/>
<path fill="#94E5B9" opacity="1.000000" stroke="none" 
	d="
M43.023827,71.892090 
	C44.903431,71.685577 46.783039,71.479057 48.852196,71.888557 
	C49.005093,72.938530 48.968445,73.372475 48.617363,73.840775 
	C47.884533,73.928688 47.466137,73.982254 46.797302,74.020187 
	C46.379593,74.003670 46.212311,74.002777 45.750511,73.878616 
	C44.655075,73.534988 43.854164,73.314629 43.041321,72.793839 
	C43.027534,72.292969 43.025681,72.092529 43.023827,71.892090 
z"/>
<path fill="#8CEBB8" opacity="1.000000" stroke="none" 
	d="
M42.875427,71.632156 
	C43.025681,72.092529 43.027534,72.292969 43.038666,73.147110 
	C43.043098,74.511940 43.038258,75.223061 43.033417,75.934189 
	C42.545815,76.223976 42.058216,76.513763 41.280876,76.815918 
	C40.993595,75.200363 40.996059,73.572433 40.996254,71.537430 
	C41.571663,71.210968 42.149345,71.291588 42.875427,71.632156 
z"/>
<path fill="#88DAAF" opacity="1.000000" stroke="none" 
	d="
M34.973991,72.976112 
	C34.455284,73.252869 33.936573,73.529625 32.790657,73.906769 
	C31.460857,74.011772 30.758265,74.016396 30.055676,74.021011 
	C29.725218,73.574249 29.394760,73.127480 29.040066,72.389420 
	C30.739475,72.077850 32.463127,72.057579 34.594193,72.298904 
	C35.001606,72.560501 34.973991,72.976112 34.973991,72.976112 
z"/>
<path fill="#B5F5D4" opacity="1.000000" stroke="none" 
	d="
M43.025368,75.957054 
	C43.038258,75.223061 43.043098,74.511940 43.050598,73.447540 
	C43.854164,73.314629 44.655075,73.534988 45.741196,74.124268 
	C46.026409,74.493172 46.050579,74.984238 46.030441,75.286003 
	C45.988438,75.989960 45.966576,76.392143 45.944710,76.794334 
	C45.514748,76.808098 45.084789,76.821854 44.228004,76.588699 
	C43.599957,76.129189 43.354084,76.004898 43.063560,75.968903 
	C43.063560,75.968903 43.017319,75.979919 43.025368,75.957054 
z"/>
<path fill="#88E1B4" opacity="1.000000" stroke="none" 
	d="
M70.000938,73.993896 
	C70.387688,73.997505 70.774445,74.001114 71.561249,74.347275 
	C72.661812,75.131111 73.362328,75.572388 74.062836,76.013664 
	C72.297714,76.309845 70.532585,76.606026 68.365509,76.799942 
	C67.963562,76.697670 67.987221,76.244972 68.316711,76.017792 
	C69.097786,75.191711 69.549362,74.592804 70.000938,73.993896 
z"/>
<path fill="#109E51" opacity="1.000000" stroke="none" 
	d="
M64.283691,72.914177 
	C64.231033,72.724304 64.178375,72.534424 64.084579,72.051399 
	C65.005280,71.629059 65.967110,71.499863 66.968964,71.933334 
	C67.009003,72.495995 66.875992,72.947075 66.551834,72.959412 
	C65.579689,72.952560 64.931686,72.933365 64.283691,72.914177 
z"/>
<path fill="#8CEBB8" opacity="1.000000" stroke="none" 
	d="
M46.348881,76.886475 
	C45.966576,76.392143 45.988438,75.989960 46.265247,75.299850 
	C46.520195,75.011932 46.992874,75.005493 47.374641,75.045288 
	C48.523293,75.130165 49.290184,75.175247 50.057072,75.220337 
	C50.036526,75.541443 50.025455,75.862877 50.023884,76.423866 
	C48.933620,76.768265 47.843334,76.873436 46.348881,76.886475 
z"/>
<path fill="#CEFADD" opacity="1.000000" stroke="none" 
	d="
M62.459381,58.011314 
	C62.965733,57.333897 63.699631,56.990601 65.120483,56.334412 
	C66.356453,56.051247 66.905472,56.080971 67.454498,56.110699 
	C67.874153,59.225109 67.828667,59.246433 62.459381,58.011314 
z"/>
<path fill="#8DC5A3" opacity="1.000000" stroke="none" 
	d="
M67.427925,56.085720 
	C66.905472,56.080971 66.356453,56.051247 65.394341,56.046429 
	C64.670143,55.539513 64.359032,55.007690 64.326462,54.171673 
	C64.605003,53.867481 65.012550,53.970375 65.181778,54.232704 
	C66.246613,54.366001 67.142227,54.236965 68.230896,54.031754 
	C68.423943,53.955570 68.828072,53.860867 68.828072,53.860867 
	C68.577858,54.523903 68.327644,55.186943 67.716354,55.983665 
	C67.355278,56.117348 67.401352,56.060741 67.427925,56.085720 
z"/>
<path fill="#74D89B" opacity="1.000000" stroke="none" 
	d="
M74.311386,75.842300 
	C73.362328,75.572388 72.661812,75.131111 71.850052,74.374710 
	C72.514366,74.034271 73.289948,74.008957 74.448181,73.967888 
	C74.740540,74.525070 74.650246,75.098000 74.311386,75.842300 
z"/>
<path fill="#179D55" opacity="1.000000" stroke="none" 
	d="
M26.110920,53.787792 
	C26.110920,53.787792 26.511700,53.982738 26.733805,54.000595 
	C27.009430,54.747334 27.062950,55.476215 27.129063,56.574799 
	C26.646637,56.733269 26.151621,56.522041 25.415051,56.186462 
	C25.166805,55.656055 25.160114,55.250000 25.427052,54.474842 
	C25.837427,53.999756 25.974174,53.893776 26.110920,53.787792 
z"/>
<path fill="#7CCFA4" opacity="1.000000" stroke="none" 
	d="
M48.931797,73.806427 
	C48.968445,73.372475 49.005093,72.938530 49.069386,72.179092 
	C49.487175,71.853523 49.877323,71.853439 50.556229,71.798538 
	C50.725971,72.377487 50.606960,73.011269 49.953823,73.813667 
	C49.257065,73.923676 49.094429,73.865051 48.931797,73.806427 
z"/>
<path fill="#179D55" opacity="1.000000" stroke="none" 
	d="
M22.185097,58.122131 
	C22.806728,57.863834 23.428358,57.605537 24.380611,57.285740 
	C24.084667,57.822422 23.458103,58.420609 22.511646,58.801537 
	C22.191757,58.584282 22.185097,58.122128 22.185097,58.122131 
z"/>
<path fill="#A9F7CF" opacity="1.000000" stroke="none" 
	d="
M35.351078,72.985481 
	C34.973991,72.976112 35.001606,72.560501 35.022469,72.354568 
	C35.776814,72.106323 36.510303,72.064011 37.608116,72.078613 
	C37.972443,72.135529 37.993526,72.572365 37.987221,72.791245 
	C37.230000,73.005035 36.479080,72.999947 35.351078,72.985481 
z"/>
<path fill="#9BE7B6" opacity="1.000000" stroke="none" 
	d="
M61.074532,58.452320 
	C60.990227,58.048325 60.990494,57.831627 60.982929,57.289730 
	C61.285614,57.146503 61.596130,57.328476 62.220669,57.957546 
	C62.076160,58.482967 61.617626,58.561295 61.074532,58.452320 
z"/>
<path fill="#9CECBC" opacity="1.000000" stroke="none" 
	d="
M69.682304,71.800659 
	C70.015648,72.053337 70.007286,72.251862 69.662521,72.734818 
	C68.895119,73.043106 68.464111,73.066971 68.019669,72.819160 
	C68.004456,72.366165 68.002686,72.184837 68.000916,72.003502 
	C68.447472,71.917831 68.894035,71.832161 69.682304,71.800659 
z"/>
<path fill="#96EBC1" opacity="1.000000" stroke="none" 
	d="
M67.752914,71.993599 
	C68.002686,72.184837 68.004456,72.366165 67.927002,73.009583 
	C67.702957,73.725349 67.501892,73.921303 67.139328,73.785774 
	C66.981377,73.323685 66.928680,73.135376 66.875992,72.947075 
	C66.875992,72.947075 67.009003,72.495995 67.009766,72.262192 
	C67.010536,72.028397 67.504913,71.983696 67.752914,71.993599 
z"/>
<path fill="#9FF1C4" opacity="1.000000" stroke="none" 
	d="
M39.789551,53.860451 
	C39.822678,54.252708 39.855801,54.644962 39.899963,55.331841 
	C39.911003,55.626457 39.502110,55.897221 39.273495,55.985886 
	C39.027184,55.623146 39.009487,55.171749 39.200626,54.343254 
	C39.409462,53.966156 39.789551,53.860451 39.789551,53.860451 
z"/>
<path fill="#8FE9AD" opacity="1.000000" stroke="none" 
	d="
M42.189926,58.190205 
	C42.562233,57.901966 43.001083,57.904919 43.762184,57.986389 
	C43.475113,58.203739 42.865791,58.342564 42.189926,58.190205 
z"/>
<path fill="#149B4F" opacity="1.000000" stroke="none" 
	d="
M31.999298,86.999084 
	C32.092152,86.963539 32.185703,86.928909 32.140541,86.947845 
	C32.001831,87.001404 32.000000,87.000000 31.999298,86.999084 
z"/>
<path fill="#8CEBB8" opacity="1.000000" stroke="none" 
	d="
M43.114185,76.211906 
	C43.354084,76.004898 43.599957,76.129189 43.911461,76.520020 
	C44.021740,76.698273 43.533844,76.785866 43.533844,76.785866 
	C43.533844,76.785866 43.164810,76.454910 43.114185,76.211906 
z"/>
<path fill="#74D99E" opacity="1.000000" stroke="none" 
	d="
M74.820068,70.774017 
	C74.574509,70.911850 74.363640,70.755707 74.088089,70.379166 
	C74.354904,70.078339 74.632027,70.185432 74.820068,70.774017 
z"/>
<path fill="#8AE0A1" opacity="1.000000" stroke="none" 
	d="
M48.848751,58.161362 
	C48.648136,57.887691 48.715122,57.715603 48.872116,57.281494 
	C49.244286,57.249722 49.526451,57.479961 49.748711,57.988647 
	C49.497986,58.265709 49.307167,58.264328 48.848751,58.161362 
z"/>
<path fill="#B2F1C7" opacity="1.000000" stroke="none" 
	d="
M55.952515,57.393761 
	C56.118931,57.267132 56.444279,57.400131 56.717293,57.720055 
	C56.480461,57.822449 56.295956,57.737923 55.952515,57.393761 
z"/>
<path fill="#8AE0A1" opacity="1.000000" stroke="none" 
	d="
M49.980633,58.587479 
	C49.979843,58.272831 50.130188,58.154198 50.557877,57.960434 
	C50.600735,58.184708 50.366253,58.484104 49.980633,58.587479 
z"/>
<path fill="#9EE9BB" opacity="1.000000" stroke="none" 
	d="
M21.936588,58.093990 
	C22.185097,58.122128 22.191757,58.584282 22.132378,58.807678 
	C21.876694,58.995674 21.680389,58.960274 21.212011,58.800224 
	C21.080751,58.339149 21.330133,58.135910 21.936588,58.093990 
z"/>
<path fill="#D4FCE3" opacity="1.000000" stroke="none" 
	d="
M85.947136,55.737015 
	C84.921249,55.590446 84.004227,55.171059 83.277405,54.315117 
	C84.058372,53.606148 84.649132,53.333729 85.239891,53.061310 
	C85.546104,53.227913 85.852310,53.394520 86.618126,53.810532 
	C86.737152,54.528019 86.396568,54.996105 85.947136,55.737015 
z"/>
<path fill="#BCF1C9" opacity="1.000000" stroke="none" 
	d="
M84.179718,57.745922 
	C84.087181,57.396896 84.324905,57.199642 84.876366,57.077423 
	C84.885162,57.306576 84.658455,57.554989 84.179718,57.745922 
z"/>
<path fill="#93BC27" opacity="1.000000" stroke="none" 
	d="
M83.600708,20.996521 
	C83.982208,21.019888 84.054497,21.382502 84.048431,21.566734 
	C84.042374,21.750965 83.754601,22.141171 83.109222,22.120575 
	C81.610306,22.098215 80.756767,22.096451 79.649979,22.052456 
	C79.225845,22.019842 79.054947,22.029455 78.884056,22.039068 
	C78.805222,21.601641 78.726387,21.164211 78.691116,20.396267 
	C80.229523,20.368219 81.724358,20.670685 83.600708,20.996521 
z"/>
<path fill="#ADC966" opacity="1.000000" stroke="none" 
	d="
M79.903229,22.094685 
	C80.756767,22.096451 81.610306,22.098215 82.881844,22.204657 
	C82.416496,22.579462 81.533157,22.849594 80.292999,22.845795 
	C79.936180,22.571861 79.903229,22.094685 79.903229,22.094685 
z"/>
<path fill="#E0F1BA" opacity="1.000000" stroke="none" 
	d="
M79.649979,22.052456 
	C79.903229,22.094685 79.936180,22.571861 79.932022,22.811325 
	C79.481049,22.813549 79.034241,22.576309 78.735741,22.189068 
	C79.054947,22.029455 79.225845,22.019842 79.649979,22.052456 
z"/>
<path fill="#07A041" opacity="1.000000" stroke="none" 
	d="
M85.420486,53.106194 
	C84.649132,53.333729 84.058372,53.606148 83.217728,53.990322 
	C82.967834,54.102077 83.005882,53.890797 82.730186,53.577667 
	C81.271469,53.188484 80.088440,53.112427 78.905418,53.036369 
	C78.905418,53.036369 78.465759,52.939732 78.246414,52.459541 
	C78.021568,50.658714 78.016060,49.338070 78.010544,48.017429 
	C79.916641,48.090691 81.822746,48.163956 83.875931,48.892723 
	C84.268364,50.376602 84.513718,51.204987 84.759064,52.033371 
	C85.039734,52.405941 85.320404,52.778511 85.420486,53.106194 
z"/>
<path fill="#249955" opacity="1.000000" stroke="none" 
	d="
M77.663635,48.155708 
	C78.016060,49.338070 78.021568,50.658714 78.038254,52.373966 
	C77.805199,51.277046 77.560966,49.785515 77.663635,48.155708 
z"/>
<path fill="#1A9B56" opacity="1.000000" stroke="none" 
	d="
M79.089111,53.373672 
	C80.088440,53.112427 81.271469,53.188484 82.742783,53.471077 
	C81.778313,53.688728 80.525551,53.699848 79.089111,53.373672 
z"/>
<path fill="#169953" opacity="1.000000" stroke="none" 
	d="
M84.927887,51.695446 
	C84.513718,51.204987 84.268364,50.376602 84.041771,49.209778 
	C84.405922,49.700062 84.751320,50.528793 84.927887,51.695446 
z"/>
<path fill="#E4FEF3" opacity="1.000000" stroke="none" 
	d="
M60.044151,47.121029 
	C60.041378,46.667706 60.038609,46.214382 60.062515,45.422516 
	C61.588650,45.295448 63.088112,45.506920 64.820221,46.204128 
	C65.065384,47.115429 65.077896,47.540997 65.090408,47.966564 
	C64.048592,47.977242 63.006771,47.987923 61.440651,47.780739 
	C60.625622,47.415588 60.334885,47.268311 60.044151,47.121029 
z"/>
<path fill="#8ECBA9" opacity="1.000000" stroke="none" 
	d="
M60.030197,47.508308 
	C60.334885,47.268311 60.625622,47.415588 61.049942,47.779617 
	C61.127384,50.707241 61.071236,53.418114 61.018761,56.583126 
	C60.674938,55.294796 60.327454,53.552330 59.932610,51.405090 
	C59.928913,49.965412 59.972580,48.930500 60.030197,47.508308 
z"/>
<path fill="#E0FDEE" opacity="1.000000" stroke="none" 
	d="
M70.748016,51.204361 
	C71.424606,51.023540 71.872589,51.034992 72.655258,51.013714 
	C72.401176,51.602314 71.812416,52.223640 71.223648,52.844967 
	C70.988899,52.362190 70.754158,51.879410 70.748016,51.204361 
z"/>
<path fill="#379C69" opacity="1.000000" stroke="none" 
	d="
M65.449188,48.008202 
	C65.077896,47.540997 65.065384,47.115429 65.097961,46.372707 
	C66.029282,46.450611 66.915512,46.845669 67.801750,47.240723 
	C67.137154,47.510429 66.472557,47.780136 65.449188,48.008202 
z"/>
<path fill="#1C893B" opacity="1.000000" stroke="none" 
	d="
M65.012550,53.970375 
	C65.012550,53.970375 64.605003,53.867481 64.395241,53.856102 
	C65.630165,53.648842 67.074860,53.452957 68.673813,53.558971 
	C68.828072,53.860867 68.423943,53.955570 67.852776,54.006664 
	C66.525253,54.028633 65.768906,53.999504 65.012550,53.970375 
z"/>
<path fill="#C5F7E4" opacity="1.000000" stroke="none" 
	d="
M71.646240,45.131672 
	C71.891289,45.120892 71.948517,45.280674 72.071564,45.686333 
	C72.090271,46.112858 72.043144,46.293507 71.916534,46.742840 
	C71.710846,46.441757 71.584641,45.871994 71.646240,45.131672 
z"/>
<path fill="#80C7A9" opacity="1.000000" stroke="none" 
	d="
M72.943008,55.351604 
	C73.137016,55.709850 72.963768,55.927525 72.485962,56.125832 
	C72.412338,55.887161 72.543785,55.588684 72.943008,55.351604 
z"/>
<path fill="#C9FCEC" opacity="1.000000" stroke="none" 
	d="
M39.864105,53.427956 
	C39.789551,53.860451 39.409462,53.966156 39.215981,54.003769 
	C39.016273,53.865795 39.010048,53.690205 38.997986,53.250980 
	C38.995434,50.617920 38.998718,48.248489 39.008820,45.434021 
	C39.015636,44.988976 39.442829,45.004677 39.655312,45.019676 
	C39.891415,47.688271 39.915035,50.341862 39.864105,53.427956 
z"/>
<path fill="#F7FDFB" opacity="1.000000" stroke="none" 
	d="
M21.978144,46.321583 
	C21.894024,45.928116 21.912876,45.750023 21.915863,45.304058 
	C22.678282,44.715733 23.456566,44.395275 24.546476,44.065742 
	C24.908306,45.757179 24.958509,47.457691 25.002632,49.585587 
	C24.996553,50.012970 24.974968,50.468235 24.959352,50.694778 
	C24.529491,50.937645 24.115244,50.953964 23.373894,50.609093 
	C22.786896,49.157490 22.527006,48.067078 22.267117,46.976669 
	C22.267117,46.976669 22.081116,46.536953 21.978144,46.321583 
z"/>
<path fill="#C0F8DB" opacity="1.000000" stroke="none" 
	d="
M22.176575,47.399330 
	C22.527006,48.067078 22.786896,49.157490 23.062346,50.599686 
	C22.922411,51.503712 22.766918,52.055946 22.395004,52.798691 
	C22.147732,51.266792 22.116884,49.544395 22.176575,47.399330 
z"/>
<path fill="#9DD2B9" opacity="1.000000" stroke="none" 
	d="
M26.144800,53.477249 
	C25.974174,53.893776 25.837427,53.999756 25.449299,54.170403 
	C25.154854,53.758656 25.111790,53.282246 25.323982,52.403885 
	C25.579239,52.001934 26.051231,51.923058 26.051231,51.923058 
	C26.093714,52.337608 26.136196,52.752159 26.144800,53.477249 
z"/>
<path fill="#C0E1D5" opacity="1.000000" stroke="none" 
	d="
M25.941393,51.702141 
	C26.051231,51.923058 25.579239,52.001934 25.344524,52.044395 
	C25.082668,51.905689 25.055529,51.724522 25.012022,51.269005 
	C25.341993,51.040577 25.620628,51.202766 25.941393,51.702141 
z"/>
<path fill="#AFE4C5" opacity="1.000000" stroke="none" 
	d="
M37.424408,47.988541 
	C37.246578,47.911274 37.202206,47.704563 37.238071,47.190487 
	C37.438374,47.091515 37.583179,47.290646 37.666363,47.512836 
	C37.699814,47.602192 37.598072,47.742165 37.424408,47.988541 
z"/>
<path fill="#CEFBDA" opacity="1.000000" stroke="none" 
	d="
M67.244583,74.059555 
	C67.501892,73.921303 67.702957,73.725349 67.940437,73.281265 
	C68.464111,73.066971 68.895119,73.043106 69.649673,73.032593 
	C69.973213,73.045944 69.985603,73.520042 69.993271,73.756973 
	C69.549362,74.592804 69.097786,75.191711 68.334473,75.791840 
	C67.870163,75.524551 67.662239,75.309563 67.254272,74.838943 
	C67.109566,74.529793 67.244583,74.059555 67.244583,74.059555 
z"/>
<path fill="#38A16F" opacity="1.000000" stroke="none" 
	d="
M67.139328,73.785774 
	C67.244583,74.059555 67.109566,74.529793 67.039604,74.764236 
	C66.039726,74.536407 65.109818,74.074135 64.231796,73.263016 
	C64.931686,72.933365 65.579689,72.952560 66.551834,72.959412 
	C66.928680,73.135376 66.981377,73.323685 67.139328,73.785774 
z"/>
<path fill="#4AA174" opacity="1.000000" stroke="none" 
	d="
M48.617363,73.840775 
	C49.094429,73.865051 49.257065,73.923676 49.678062,73.996246 
	C49.962982,74.210526 49.989529,74.410851 50.036572,74.915756 
	C49.290184,75.175247 48.523293,75.130165 47.377007,74.802155 
	C46.997608,74.519241 47.047737,74.035820 47.047737,74.035820 
	C47.466137,73.982254 47.884533,73.928688 48.617363,73.840775 
z"/>
<path fill="#47996F" opacity="1.000000" stroke="none" 
	d="
M30.192432,74.330154 
	C30.758265,74.016396 31.460857,74.011772 32.514694,74.009384 
	C32.865936,74.011612 32.923195,74.484985 32.935909,74.723030 
	C32.075481,74.853806 31.202335,74.746544 30.192432,74.330154 
z"/>
<path fill="#7CCFA4" opacity="1.000000" stroke="none" 
	d="
M46.797302,74.020187 
	C47.047737,74.035820 46.997608,74.519241 46.995239,74.762367 
	C46.992874,75.005493 46.520195,75.011932 46.285385,74.998085 
	C46.050579,74.984238 46.026409,74.493172 46.035721,74.247528 
	C46.212311,74.002777 46.379593,74.003670 46.797302,74.020187 
z"/>
<path fill="#56BB78" opacity="1.000000" stroke="none" 
	d="
M65.181778,54.232704 
	C65.768906,53.999504 66.525253,54.028633 67.659729,54.082848 
	C67.142227,54.236965 66.246613,54.366001 65.181778,54.232704 
z"/>
</svg>